<svg width="448" height="599" viewBox="0 0 448 599" fill="none" xmlns="http://www.w3.org/2000/svg">
<rect width="448" height="599" rx="20" fill="#323238"/>
<path d="M59.08 92V62.2H62.88L79.6 85.28L77.8 85.56V62.2H82.48V92H78.68L62.08 68.76L63.8 68.44V92H59.08ZM94.6903 92.48C93.2236 92.48 91.9303 92.2267 90.8103 91.72C89.717 91.1867 88.8636 90.4667 88.2503 89.56C87.637 88.6267 87.3303 87.5333 87.3303 86.28C87.3303 85.1067 87.5836 84.0533 88.0903 83.12C88.6236 82.1867 89.437 81.4 90.5303 80.76C91.6236 80.12 92.997 79.6667 94.6503 79.4L102.17 78.16V81.72L95.5303 82.88C94.3303 83.0933 93.4503 83.48 92.8903 84.04C92.3303 84.5733 92.0503 85.2667 92.0503 86.12C92.0503 86.9467 92.357 87.6267 92.9703 88.16C93.6103 88.6667 94.4236 88.92 95.4103 88.92C96.637 88.92 97.7036 88.6533 98.6103 88.12C99.5436 87.5867 100.264 86.88 100.77 86C101.277 85.0933 101.53 84.0933 101.53 83V77.44C101.53 76.3733 101.13 75.5067 100.33 74.84C99.557 74.1467 98.517 73.8 97.2103 73.8C96.0103 73.8 94.957 74.12 94.0503 74.76C93.1703 75.3733 92.517 76.1733 92.0903 77.16L88.3303 75.28C88.7303 74.2133 89.3836 73.28 90.2903 72.48C91.197 71.6533 92.2503 71.0133 93.4503 70.56C94.677 70.1067 95.9703 69.88 97.3303 69.88C99.037 69.88 100.544 70.2 101.85 70.84C103.184 71.48 104.21 72.3733 104.93 73.52C105.677 74.64 106.05 75.9467 106.05 77.44V92H101.73V88.08L102.65 88.2C102.144 89.08 101.49 89.84 100.69 90.48C99.917 91.12 99.0236 91.6133 98.0103 91.96C97.0236 92.3067 95.917 92.48 94.6903 92.48ZM117.225 92L108.745 70.36H113.665L120.185 88H118.385L124.905 70.36H129.865L121.345 92H117.225ZM142.706 92.48C140.546 92.48 138.626 91.9867 136.946 91C135.293 89.9867 134 88.6267 133.066 86.92C132.133 85.1867 131.666 83.2533 131.666 81.12C131.666 78.9333 132.133 77 133.066 75.32C134.026 73.64 135.306 72.32 136.906 71.36C138.506 70.3733 140.32 69.88 142.346 69.88C143.973 69.88 145.426 70.16 146.706 70.72C147.986 71.28 149.066 72.0533 149.946 73.04C150.826 74 151.493 75.1067 151.946 76.36C152.426 77.6133 152.666 78.9467 152.666 80.36C152.666 80.7067 152.653 81.0667 152.626 81.44C152.6 81.8133 152.546 82.16 152.466 82.48H135.226V78.88H149.906L147.746 80.52C148.013 79.2133 147.92 78.0533 147.466 77.04C147.04 76 146.373 75.1867 145.466 74.6C144.586 73.9867 143.546 73.68 142.346 73.68C141.146 73.68 140.08 73.9867 139.146 74.6C138.213 75.1867 137.493 76.04 136.986 77.16C136.48 78.2533 136.28 79.5867 136.386 81.16C136.253 82.6267 136.453 83.9067 136.986 85C137.546 86.0933 138.32 86.9467 139.306 87.56C140.32 88.1733 141.466 88.48 142.746 88.48C144.053 88.48 145.16 88.1867 146.066 87.6C147 87.0133 147.733 86.2533 148.266 85.32L151.946 87.12C151.52 88.1333 150.853 89.0533 149.946 89.88C149.066 90.68 148 91.32 146.746 91.8C145.52 92.2533 144.173 92.48 142.706 92.48ZM167.518 100.8C165.944 100.8 164.491 100.547 163.158 100.04C161.824 99.5333 160.678 98.8267 159.717 97.92C158.758 97.04 158.038 96 157.558 94.8L161.718 93.08C162.091 94.0933 162.771 94.9333 163.758 95.6C164.771 96.2667 166.011 96.6 167.478 96.6C168.624 96.6 169.651 96.3733 170.558 95.92C171.464 95.4933 172.184 94.8533 172.718 94C173.251 93.1733 173.518 92.1733 173.518 91V86.12L174.318 87.04C173.571 88.4267 172.531 89.48 171.198 90.2C169.891 90.92 168.411 91.28 166.758 91.28C164.758 91.28 162.958 90.8133 161.358 89.88C159.758 88.9467 158.491 87.6667 157.558 86.04C156.651 84.4133 156.198 82.5867 156.198 80.56C156.198 78.5067 156.651 76.68 157.558 75.08C158.491 73.48 159.744 72.2133 161.318 71.28C162.891 70.3467 164.691 69.88 166.718 69.88C168.371 69.88 169.838 70.24 171.118 70.96C172.424 71.6533 173.491 72.6667 174.318 74L173.718 75.12V70.36H177.998V91C177.998 92.8667 177.544 94.5333 176.638 96C175.758 97.4933 174.531 98.6667 172.958 99.52C171.384 100.373 169.571 100.8 167.518 100.8ZM167.278 87.08C168.478 87.08 169.544 86.8 170.478 86.24C171.411 85.6533 172.144 84.88 172.678 83.92C173.238 82.9333 173.518 81.8267 173.518 80.6C173.518 79.3733 173.238 78.2667 172.678 77.28C172.118 76.2933 171.371 75.52 170.438 74.96C169.504 74.3733 168.451 74.08 167.278 74.08C166.051 74.08 164.958 74.3733 163.998 74.96C163.038 75.52 162.278 76.2933 161.718 77.28C161.184 78.24 160.918 79.3467 160.918 80.6C160.918 81.8 161.184 82.8933 161.718 83.88C162.278 84.8667 163.038 85.6533 163.998 86.24C164.958 86.8 166.051 87.08 167.278 87.08ZM189.768 92.48C188.302 92.48 187.008 92.2267 185.888 91.72C184.795 91.1867 183.942 90.4667 183.328 89.56C182.715 88.6267 182.408 87.5333 182.408 86.28C182.408 85.1067 182.662 84.0533 183.168 83.12C183.702 82.1867 184.515 81.4 185.608 80.76C186.702 80.12 188.075 79.6667 189.728 79.4L197.248 78.16V81.72L190.608 82.88C189.408 83.0933 188.528 83.48 187.968 84.04C187.408 84.5733 187.128 85.2667 187.128 86.12C187.128 86.9467 187.435 87.6267 188.048 88.16C188.688 88.6667 189.502 88.92 190.488 88.92C191.715 88.92 192.782 88.6533 193.688 88.12C194.622 87.5867 195.342 86.88 195.848 86C196.355 85.0933 196.608 84.0933 196.608 83V77.44C196.608 76.3733 196.208 75.5067 195.408 74.84C194.635 74.1467 193.595 73.8 192.288 73.8C191.088 73.8 190.035 74.12 189.128 74.76C188.248 75.3733 187.595 76.1733 187.168 77.16L183.408 75.28C183.808 74.2133 184.462 73.28 185.368 72.48C186.275 71.6533 187.328 71.0133 188.528 70.56C189.755 70.1067 191.048 69.88 192.408 69.88C194.115 69.88 195.622 70.2 196.928 70.84C198.262 71.48 199.288 72.3733 200.008 73.52C200.755 74.64 201.128 75.9467 201.128 77.44V92H196.808V88.08L197.728 88.2C197.222 89.08 196.568 89.84 195.768 90.48C194.995 91.12 194.102 91.6133 193.088 91.96C192.102 92.3067 190.995 92.48 189.768 92.48ZM206.413 92V70.36H210.733V74.72L210.333 74.08C210.813 72.6667 211.587 71.6533 212.653 71.04C213.72 70.4 215 70.08 216.493 70.08H217.813V74.2H215.933C214.44 74.2 213.227 74.6667 212.293 75.6C211.387 76.5067 210.933 77.8133 210.933 79.52V92H206.413Z" fill="#E1E1E6"/>
<path d="M80.0939 179.704C79.0699 179.704 78.1525 179.469 77.3419 179C76.5312 178.531 75.8912 177.891 75.4219 177.08C74.9525 176.269 74.7179 175.352 74.7179 174.328C74.7179 173.347 74.9419 172.472 75.3899 171.704C75.8592 170.915 76.4992 170.296 77.3099 169.848C78.1205 169.379 79.0485 169.144 80.0939 169.144C81.0752 169.144 81.9499 169.379 82.7179 169.848C83.4859 170.296 84.0939 170.915 84.5419 171.704C85.0112 172.493 85.2565 173.368 85.2779 174.328C85.2779 175.352 85.0432 176.269 84.5739 177.08C84.1259 177.891 83.5072 178.531 82.7179 179C81.9499 179.469 81.0752 179.704 80.0939 179.704ZM104 185.24H136V153.24H104V185.24ZM152.286 183.384C150.771 183.384 149.395 183.096 148.158 182.52C146.92 181.944 145.875 181.176 145.022 180.216C144.168 179.235 143.56 178.157 143.198 176.984L145.502 176.12C146.056 177.741 146.92 178.979 148.094 179.832C149.267 180.664 150.664 181.08 152.286 181.08C153.31 181.08 154.206 180.92 154.974 180.6C155.763 180.259 156.371 179.789 156.798 179.192C157.224 178.595 157.438 177.901 157.438 177.112C157.438 175.939 157.118 175.032 156.478 174.392C155.838 173.752 154.92 173.261 153.726 172.92L149.438 171.64C147.752 171.149 146.451 170.328 145.534 169.176C144.638 168.024 144.19 166.712 144.19 165.24C144.19 163.981 144.499 162.872 145.118 161.912C145.736 160.931 146.579 160.163 147.646 159.608C148.734 159.053 149.96 158.776 151.326 158.776C152.755 158.776 154.035 159.043 155.166 159.576C156.318 160.088 157.288 160.771 158.078 161.624C158.867 162.477 159.432 163.427 159.774 164.472L157.534 165.368C157.022 163.96 156.222 162.893 155.134 162.168C154.067 161.443 152.808 161.08 151.358 161.08C150.44 161.08 149.63 161.24 148.926 161.56C148.243 161.88 147.71 162.339 147.326 162.936C146.942 163.533 146.75 164.237 146.75 165.048C146.75 166.029 147.059 166.915 147.678 167.704C148.296 168.472 149.246 169.048 150.526 169.432L154.302 170.552C156.179 171.107 157.598 171.907 158.558 172.952C159.518 173.997 159.998 175.309 159.998 176.888C159.998 178.168 159.667 179.299 159.006 180.28C158.366 181.24 157.459 181.997 156.286 182.552C155.134 183.107 153.8 183.384 152.286 183.384ZM172.621 183.384C171 183.384 169.528 183 168.205 182.232C166.882 181.443 165.826 180.376 165.037 179.032C164.269 177.667 163.885 176.12 163.885 174.392C163.885 172.685 164.269 171.16 165.037 169.816C165.805 168.472 166.84 167.416 168.141 166.648C169.464 165.859 170.957 165.464 172.621 165.464C174.285 165.464 175.768 165.848 177.069 166.616C178.392 167.384 179.426 168.44 180.173 169.784C180.941 171.128 181.325 172.664 181.325 174.392C181.325 176.141 180.93 177.699 180.141 179.064C179.352 180.408 178.296 181.464 176.973 182.232C175.672 183 174.221 183.384 172.621 183.384ZM172.621 180.984C173.773 180.984 174.808 180.696 175.725 180.12C176.664 179.544 177.4 178.755 177.933 177.752C178.488 176.749 178.765 175.629 178.765 174.392C178.765 173.155 178.488 172.045 177.933 171.064C177.4 170.083 176.664 169.304 175.725 168.728C174.808 168.152 173.773 167.864 172.621 167.864C171.469 167.864 170.424 168.152 169.485 168.728C168.568 169.304 167.832 170.083 167.277 171.064C166.722 172.045 166.445 173.155 166.445 174.392C166.445 175.629 166.722 176.749 167.277 177.752C167.832 178.755 168.568 179.544 169.485 180.12C170.424 180.696 171.469 180.984 172.621 180.984ZM194.23 183.384C192.758 183.384 191.424 183.053 190.23 182.392C189.056 181.709 188.171 180.749 187.574 179.512L187.958 179.16V183H185.558V158.776H187.958V169.688L187.574 169.016C188.256 167.928 189.163 167.064 190.294 166.424C191.446 165.784 192.758 165.464 194.23 165.464C195.851 165.464 197.291 165.859 198.55 166.648C199.83 167.416 200.832 168.472 201.558 169.816C202.304 171.16 202.678 172.696 202.678 174.424C202.678 176.131 202.304 177.667 201.558 179.032C200.832 180.376 199.83 181.443 198.55 182.232C197.291 183 195.851 183.384 194.23 183.384ZM194.102 180.984C195.254 180.984 196.278 180.696 197.174 180.12C198.091 179.544 198.806 178.765 199.318 177.784C199.851 176.781 200.118 175.661 200.118 174.424C200.118 173.165 199.851 172.045 199.318 171.064C198.806 170.083 198.091 169.304 197.174 168.728C196.278 168.152 195.254 167.864 194.102 167.864C192.95 167.864 191.904 168.152 190.966 168.728C190.048 169.304 189.312 170.093 188.758 171.096C188.224 172.077 187.958 173.187 187.958 174.424C187.958 175.661 188.224 176.781 188.758 177.784C189.312 178.765 190.048 179.544 190.966 180.12C191.904 180.696 192.95 180.984 194.102 180.984ZM206.902 183V165.848H209.302V168.664L208.982 168.248C209.387 167.437 209.995 166.797 210.806 166.328C211.638 165.859 212.64 165.624 213.814 165.624H214.902V168.024H213.398C212.16 168.024 211.168 168.408 210.422 169.176C209.675 169.944 209.302 171.032 209.302 172.44V183H206.902ZM225.522 183.384C223.922 183.384 222.471 183 221.17 182.232C219.89 181.443 218.877 180.365 218.13 179C217.383 177.635 217.01 176.088 217.01 174.36C217.01 172.632 217.373 171.107 218.098 169.784C218.823 168.44 219.805 167.384 221.042 166.616C222.301 165.848 223.709 165.464 225.266 165.464C226.503 165.464 227.602 165.699 228.562 166.168C229.543 166.616 230.375 167.235 231.058 168.024C231.741 168.792 232.263 169.667 232.626 170.648C232.989 171.608 233.17 172.6 233.17 173.624C233.17 173.837 233.159 174.083 233.138 174.36C233.117 174.616 233.085 174.883 233.042 175.16H218.546V172.92H231.666L230.514 173.88C230.706 172.707 230.567 171.661 230.098 170.744C229.65 169.805 228.999 169.069 228.146 168.536C227.293 167.981 226.333 167.704 225.266 167.704C224.199 167.704 223.207 167.981 222.29 168.536C221.394 169.091 220.69 169.869 220.178 170.872C219.666 171.853 219.463 173.027 219.57 174.392C219.463 175.757 219.677 176.952 220.21 177.976C220.765 178.979 221.511 179.757 222.45 180.312C223.41 180.867 224.434 181.144 225.522 181.144C226.781 181.144 227.837 180.845 228.69 180.248C229.543 179.651 230.237 178.904 230.77 178.008L232.818 179.096C232.477 179.864 231.954 180.579 231.25 181.24C230.546 181.88 229.703 182.403 228.722 182.808C227.762 183.192 226.695 183.384 225.522 183.384ZM80.0939 254.704C79.0699 254.704 78.1525 254.469 77.3419 254C76.5312 253.531 75.8912 252.891 75.4219 252.08C74.9525 251.269 74.7179 250.352 74.7179 249.328C74.7179 248.347 74.9419 247.472 75.3899 246.704C75.8592 245.915 76.4992 245.296 77.3099 244.848C78.1205 244.379 79.0485 244.144 80.0939 244.144C81.0752 244.144 81.9499 244.379 82.7179 244.848C83.4859 245.296 84.0939 245.915 84.5419 246.704C85.0112 247.493 85.2565 248.368 85.2779 249.328C85.2779 250.352 85.0432 251.269 84.5739 252.08C84.1259 252.891 83.5072 253.531 82.7179 254C81.9499 254.469 81.0752 254.704 80.0939 254.704ZM104 260.24H136V228.24H104V260.24ZM144.254 258V234.16H152.446C154.003 234.16 155.368 234.469 156.542 235.088C157.715 235.685 158.622 236.539 159.262 237.648C159.923 238.736 160.253 240.005 160.253 241.456C160.253 242.907 159.923 244.176 159.262 245.264C158.622 246.352 157.715 247.205 156.542 247.824C155.39 248.421 154.024 248.72 152.446 248.72H146.814V258H144.254ZM146.814 246.32H152.574C153.598 246.32 154.494 246.128 155.262 245.744C156.03 245.339 156.627 244.773 157.054 244.048C157.48 243.301 157.694 242.427 157.694 241.424C157.694 240.421 157.48 239.557 157.054 238.832C156.627 238.107 156.03 237.552 155.262 237.168C154.494 236.763 153.598 236.56 152.574 236.56H146.814V246.32ZM164.464 258V240.848H166.864V243.664L166.544 243.248C166.949 242.437 167.557 241.797 168.368 241.328C169.2 240.859 170.203 240.624 171.376 240.624H172.464V243.024H170.96C169.723 243.024 168.731 243.408 167.984 244.176C167.237 244.944 166.864 246.032 166.864 247.44V258H164.464ZM183.309 258.384C181.687 258.384 180.215 258 178.893 257.232C177.57 256.443 176.514 255.376 175.725 254.032C174.957 252.667 174.573 251.12 174.573 249.392C174.573 247.685 174.957 246.16 175.725 244.816C176.493 243.472 177.527 242.416 178.829 241.648C180.151 240.859 181.645 240.464 183.309 240.464C184.973 240.464 186.455 240.848 187.757 241.616C189.079 242.384 190.114 243.44 190.861 244.784C191.629 246.128 192.013 247.664 192.013 249.392C192.013 251.141 191.618 252.699 190.829 254.064C190.039 255.408 188.983 256.464 187.661 257.232C186.359 258 184.909 258.384 183.309 258.384ZM183.309 255.984C184.461 255.984 185.495 255.696 186.413 255.12C187.351 254.544 188.087 253.755 188.621 252.752C189.175 251.749 189.453 250.629 189.453 249.392C189.453 248.155 189.175 247.045 188.621 246.064C188.087 245.083 187.351 244.304 186.413 243.728C185.495 243.152 184.461 242.864 183.309 242.864C182.157 242.864 181.111 243.152 180.173 243.728C179.255 244.304 178.519 245.083 177.965 246.064C177.41 247.045 177.133 248.155 177.133 249.392C177.133 250.629 177.41 251.749 177.965 252.752C178.519 253.755 179.255 254.544 180.173 255.12C181.111 255.696 182.157 255.984 183.309 255.984ZM193.045 265.04C192.896 265.04 192.693 265.029 192.437 265.008C192.16 264.987 191.936 264.955 191.765 264.912V262.704C192.213 262.768 192.661 262.8 193.109 262.8C193.984 262.8 194.72 262.533 195.317 262C195.936 261.467 196.245 260.667 196.245 259.6V240.848H198.645V259.6C198.645 260.773 198.389 261.765 197.877 262.576C197.365 263.387 196.683 263.995 195.829 264.4C194.997 264.827 194.069 265.04 193.045 265.04ZM196.245 237.68V234.16H198.645V237.68H196.245ZM211.366 258.384C209.766 258.384 208.315 258 207.014 257.232C205.734 256.443 204.72 255.365 203.974 254C203.227 252.635 202.854 251.088 202.854 249.36C202.854 247.632 203.216 246.107 203.942 244.784C204.667 243.44 205.648 242.384 206.886 241.616C208.144 240.848 209.552 240.464 211.11 240.464C212.347 240.464 213.446 240.699 214.406 241.168C215.387 241.616 216.219 242.235 216.902 243.024C217.584 243.792 218.107 244.667 218.47 245.648C218.832 246.608 219.014 247.6 219.014 248.624C219.014 248.837 219.003 249.083 218.982 249.36C218.96 249.616 218.928 249.883 218.886 250.16H204.39V247.92H217.51L216.358 248.88C216.55 247.707 216.411 246.661 215.942 245.744C215.494 244.805 214.843 244.069 213.99 243.536C213.136 242.981 212.176 242.704 211.11 242.704C210.043 242.704 209.051 242.981 208.134 243.536C207.238 244.091 206.534 244.869 206.022 245.872C205.51 246.853 205.307 248.027 205.414 249.392C205.307 250.757 205.52 251.952 206.054 252.976C206.608 253.979 207.355 254.757 208.294 255.312C209.254 255.867 210.278 256.144 211.366 256.144C212.624 256.144 213.68 255.845 214.534 255.248C215.387 254.651 216.08 253.904 216.614 253.008L218.662 254.096C218.32 254.864 217.798 255.579 217.094 256.24C216.39 256.88 215.547 257.403 214.566 257.808C213.606 258.192 212.539 258.384 211.366 258.384ZM229.805 258.192C228.269 258.192 227.085 257.744 226.253 256.848C225.421 255.952 225.005 254.672 225.005 253.008V243.248H221.837V240.848H222.637C223.363 240.848 223.939 240.613 224.365 240.144C224.792 239.653 225.005 239.045 225.005 238.32V236.88H227.405V240.848H231.181V243.248H227.405V253.008C227.405 253.584 227.491 254.096 227.661 254.544C227.832 254.971 228.12 255.312 228.525 255.568C228.952 255.824 229.517 255.952 230.221 255.952C230.392 255.952 230.595 255.941 230.829 255.92C231.064 255.899 231.267 255.877 231.437 255.856V258C231.181 258.064 230.893 258.107 230.573 258.128C230.253 258.171 229.997 258.192 229.805 258.192ZM243.059 258.384C241.437 258.384 239.965 258 238.643 257.232C237.32 256.443 236.264 255.376 235.475 254.032C234.707 252.667 234.323 251.12 234.323 249.392C234.323 247.685 234.707 246.16 235.475 244.816C236.243 243.472 237.277 242.416 238.579 241.648C239.901 240.859 241.395 240.464 243.059 240.464C244.723 240.464 246.205 240.848 247.507 241.616C248.829 242.384 249.864 243.44 250.611 244.784C251.379 246.128 251.763 247.664 251.763 249.392C251.763 251.141 251.368 252.699 250.579 254.064C249.789 255.408 248.733 256.464 247.411 257.232C246.109 258 244.659 258.384 243.059 258.384ZM243.059 255.984C244.211 255.984 245.245 255.696 246.163 255.12C247.101 254.544 247.837 253.755 248.371 252.752C248.925 251.749 249.203 250.629 249.203 249.392C249.203 248.155 248.925 247.045 248.371 246.064C247.837 245.083 247.101 244.304 246.163 243.728C245.245 243.152 244.211 242.864 243.059 242.864C241.907 242.864 240.861 243.152 239.923 243.728C239.005 244.304 238.269 245.083 237.715 246.064C237.16 247.045 236.883 248.155 236.883 249.392C236.883 250.629 237.16 251.749 237.715 252.752C238.269 253.755 239.005 254.544 239.923 255.12C240.861 255.696 241.907 255.984 243.059 255.984ZM80.0939 329.704C79.0699 329.704 78.1525 329.469 77.3419 329C76.5312 328.531 75.8912 327.891 75.4219 327.08C74.9525 326.269 74.7179 325.352 74.7179 324.328C74.7179 323.347 74.9419 322.472 75.3899 321.704C75.8592 320.915 76.4992 320.296 77.3099 319.848C78.1205 319.379 79.0485 319.144 80.0939 319.144C81.0752 319.144 81.9499 319.379 82.7179 319.848C83.4859 320.296 84.0939 320.915 84.5419 321.704C85.0112 322.493 85.2565 323.368 85.2779 324.328C85.2779 325.352 85.0432 326.269 84.5739 327.08C84.1259 327.891 83.5072 328.531 82.7179 329C81.9499 329.469 81.0752 329.704 80.0939 329.704ZM104 335.24H136V303.24H104V335.24ZM144.254 333V309.16H154.27C155.614 309.16 156.776 309.416 157.758 309.928C158.76 310.419 159.528 311.112 160.062 312.008C160.616 312.904 160.894 313.949 160.894 315.144C160.894 316.381 160.584 317.48 159.966 318.44C159.368 319.379 158.504 320.093 157.374 320.584L157.342 319.816C158.28 320.157 159.08 320.637 159.742 321.256C160.424 321.875 160.947 322.6 161.31 323.432C161.672 324.243 161.854 325.117 161.854 326.056C161.854 328.189 161.171 329.885 159.806 331.144C158.462 332.381 156.627 333 154.302 333H144.254ZM146.814 330.6H154.302C155.816 330.6 157.022 330.205 157.918 329.416C158.835 328.605 159.294 327.496 159.294 326.088C159.294 324.701 158.835 323.603 157.918 322.792C157.022 321.96 155.816 321.544 154.302 321.544H146.814V330.6ZM146.814 319.24H154.078C155.358 319.24 156.382 318.867 157.15 318.12C157.939 317.373 158.333 316.413 158.333 315.24C158.333 314.045 157.939 313.139 157.15 312.52C156.382 311.88 155.358 311.56 154.078 311.56H146.814V319.24ZM171.049 333.384C169.961 333.384 168.99 333.181 168.137 332.776C167.284 332.349 166.612 331.773 166.121 331.048C165.63 330.323 165.385 329.491 165.385 328.552C165.385 327.656 165.577 326.845 165.961 326.12C166.345 325.373 166.942 324.744 167.753 324.232C168.564 323.72 169.598 323.357 170.857 323.144L177.577 322.024V324.2L171.433 325.224C170.196 325.437 169.3 325.832 168.745 326.408C168.212 326.984 167.945 327.667 167.945 328.456C167.945 329.224 168.244 329.875 168.841 330.408C169.46 330.941 170.249 331.208 171.209 331.208C172.382 331.208 173.406 330.963 174.281 330.472C175.156 329.96 175.838 329.277 176.329 328.424C176.82 327.571 177.065 326.621 177.065 325.576V321.224C177.065 320.2 176.692 319.368 175.945 318.728C175.198 318.088 174.228 317.768 173.033 317.768C171.988 317.768 171.07 318.035 170.281 318.568C169.492 319.08 168.905 319.752 168.521 320.584L166.345 319.4C166.665 318.675 167.166 318.013 167.849 317.416C168.553 316.819 169.353 316.349 170.249 316.008C171.145 315.645 172.073 315.464 173.033 315.464C174.292 315.464 175.401 315.709 176.361 316.2C177.342 316.691 178.1 317.373 178.633 318.248C179.188 319.101 179.465 320.093 179.465 321.224V333H177.065V329.576L177.417 329.928C177.118 330.568 176.649 331.155 176.009 331.688C175.39 332.2 174.654 332.616 173.801 332.936C172.969 333.235 172.052 333.384 171.049 333.384ZM184.402 333V315.848H186.802V333H184.402ZM184.402 312.68V309.16H186.802V312.68H184.402ZM189.602 333L195.618 324.424L189.634 315.848H192.578L197.89 323.56H196.258L201.538 315.848H204.482L198.498 324.424L204.482 333H201.538L196.258 325.288H197.89L192.578 333H189.602ZM211.955 333.384C210.867 333.384 209.897 333.181 209.043 332.776C208.19 332.349 207.518 331.773 207.027 331.048C206.537 330.323 206.291 329.491 206.291 328.552C206.291 327.656 206.483 326.845 206.867 326.12C207.251 325.373 207.849 324.744 208.659 324.232C209.47 323.72 210.505 323.357 211.763 323.144L218.483 322.024V324.2L212.339 325.224C211.102 325.437 210.206 325.832 209.651 326.408C209.118 326.984 208.851 327.667 208.851 328.456C208.851 329.224 209.15 329.875 209.747 330.408C210.366 330.941 211.155 331.208 212.115 331.208C213.289 331.208 214.313 330.963 215.187 330.472C216.062 329.96 216.745 329.277 217.235 328.424C217.726 327.571 217.971 326.621 217.971 325.576V321.224C217.971 320.2 217.598 319.368 216.851 318.728C216.105 318.088 215.134 317.768 213.939 317.768C212.894 317.768 211.977 318.035 211.187 318.568C210.398 319.08 209.811 319.752 209.427 320.584L207.251 319.4C207.571 318.675 208.073 318.013 208.755 317.416C209.459 316.819 210.259 316.349 211.155 316.008C212.051 315.645 212.979 315.464 213.939 315.464C215.198 315.464 216.307 315.709 217.267 316.2C218.249 316.691 219.006 317.373 219.539 318.248C220.094 319.101 220.371 320.093 220.371 321.224V333H217.971V329.576L218.323 329.928C218.025 330.568 217.555 331.155 216.915 331.688C216.297 332.2 215.561 332.616 214.707 332.936C213.875 333.235 212.958 333.384 211.955 333.384ZM225.308 333V315.848H227.708V318.664L227.388 318.248C227.793 317.437 228.401 316.797 229.212 316.328C230.044 315.859 231.046 315.624 232.22 315.624H233.308V318.024H231.804C230.566 318.024 229.574 318.408 228.828 319.176C228.081 319.944 227.708 321.032 227.708 322.44V333H225.308ZM246.518 333.384C245.43 333.384 244.459 333.181 243.606 332.776C242.752 332.349 242.08 331.773 241.59 331.048C241.099 330.323 240.854 329.491 240.854 328.552C240.854 327.656 241.046 326.845 241.43 326.12C241.814 325.373 242.411 324.744 243.222 324.232C244.032 323.72 245.067 323.357 246.326 323.144L253.046 322.024V324.2L246.902 325.224C245.664 325.437 244.768 325.832 244.214 326.408C243.68 326.984 243.414 327.667 243.414 328.456C243.414 329.224 243.712 329.875 244.31 330.408C244.928 330.941 245.718 331.208 246.678 331.208C247.851 331.208 248.875 330.963 249.75 330.472C250.624 329.96 251.307 329.277 251.798 328.424C252.288 327.571 252.534 326.621 252.534 325.576V321.224C252.534 320.2 252.16 319.368 251.414 318.728C250.667 318.088 249.696 317.768 248.502 317.768C247.456 317.768 246.539 318.035 245.75 318.568C244.96 319.08 244.374 319.752 243.99 320.584L241.814 319.4C242.134 318.675 242.635 318.013 243.318 317.416C244.022 316.819 244.822 316.349 245.718 316.008C246.614 315.645 247.542 315.464 248.502 315.464C249.76 315.464 250.87 315.709 251.83 316.2C252.811 316.691 253.568 317.373 254.102 318.248C254.656 319.101 254.934 320.093 254.934 321.224V333H252.534V329.576L252.886 329.928C252.587 330.568 252.118 331.155 251.478 331.688C250.859 332.2 250.123 332.616 249.27 332.936C248.438 333.235 247.52 333.384 246.518 333.384ZM265.822 333.384C264.18 333.384 262.74 332.968 261.502 332.136C260.265 331.304 259.369 330.173 258.814 328.744L260.83 327.784C261.321 328.829 262.004 329.661 262.878 330.28C263.774 330.899 264.756 331.208 265.822 331.208C266.846 331.208 267.71 330.963 268.414 330.472C269.118 329.96 269.47 329.299 269.47 328.488C269.47 327.891 269.3 327.421 268.958 327.08C268.617 326.717 268.222 326.44 267.774 326.248C267.326 326.056 266.932 325.917 266.59 325.832L264.126 325.128C262.548 324.68 261.406 324.051 260.702 323.24C259.998 322.429 259.646 321.491 259.646 320.424C259.646 319.421 259.902 318.547 260.414 317.8C260.926 317.053 261.62 316.477 262.494 316.072C263.369 315.667 264.34 315.464 265.406 315.464C266.857 315.464 268.169 315.848 269.342 316.616C270.537 317.363 271.38 318.408 271.87 319.752L269.822 320.712C269.396 319.752 268.777 319.005 267.966 318.472C267.177 317.917 266.292 317.64 265.31 317.64C264.35 317.64 263.582 317.885 263.006 318.376C262.43 318.867 262.142 319.485 262.142 320.232C262.142 320.808 262.292 321.267 262.59 321.608C262.889 321.949 263.23 322.205 263.614 322.376C264.02 322.547 264.372 322.675 264.67 322.76L267.518 323.592C268.905 323.997 269.982 324.627 270.75 325.48C271.54 326.333 271.934 327.336 271.934 328.488C271.934 329.427 271.668 330.269 271.134 331.016C270.622 331.763 269.908 332.349 268.99 332.776C268.073 333.181 267.017 333.384 265.822 333.384ZM282.104 333.384C280.461 333.384 279.021 332.968 277.784 332.136C276.546 331.304 275.65 330.173 275.096 328.744L277.112 327.784C277.602 328.829 278.285 329.661 279.16 330.28C280.056 330.899 281.037 331.208 282.104 331.208C283.128 331.208 283.992 330.963 284.696 330.472C285.4 329.96 285.752 329.299 285.752 328.488C285.752 327.891 285.581 327.421 285.24 327.08C284.898 326.717 284.504 326.44 284.056 326.248C283.608 326.056 283.213 325.917 282.872 325.832L280.408 325.128C278.829 324.68 277.688 324.051 276.984 323.24C276.28 322.429 275.928 321.491 275.928 320.424C275.928 319.421 276.184 318.547 276.696 317.8C277.208 317.053 277.901 316.477 278.776 316.072C279.65 315.667 280.621 315.464 281.688 315.464C283.138 315.464 284.45 315.848 285.624 316.616C286.818 317.363 287.661 318.408 288.152 319.752L286.104 320.712C285.677 319.752 285.058 319.005 284.248 318.472C283.458 317.917 282.573 317.64 281.592 317.64C280.632 317.64 279.864 317.885 279.288 318.376C278.712 318.867 278.424 319.485 278.424 320.232C278.424 320.808 278.573 321.267 278.872 321.608C279.17 321.949 279.512 322.205 279.896 322.376C280.301 322.547 280.653 322.675 280.952 322.76L283.8 323.592C285.186 323.997 286.264 324.627 287.032 325.48C287.821 326.333 288.216 327.336 288.216 328.488C288.216 329.427 287.949 330.269 287.416 331.016C286.904 331.763 286.189 332.349 285.272 332.776C284.354 333.181 283.298 333.384 282.104 333.384ZM300.241 333.384C298.641 333.384 297.19 333 295.889 332.232C294.609 331.443 293.595 330.365 292.849 329C292.102 327.635 291.729 326.088 291.729 324.36C291.729 322.632 292.091 321.107 292.817 319.784C293.542 318.44 294.523 317.384 295.761 316.616C297.019 315.848 298.427 315.464 299.985 315.464C301.222 315.464 302.321 315.699 303.281 316.168C304.262 316.616 305.094 317.235 305.777 318.024C306.459 318.792 306.982 319.667 307.345 320.648C307.707 321.608 307.889 322.6 307.889 323.624C307.889 323.837 307.878 324.083 307.857 324.36C307.835 324.616 307.803 324.883 307.761 325.16H293.265V322.92H306.385L305.233 323.88C305.425 322.707 305.286 321.661 304.817 320.744C304.369 319.805 303.718 319.069 302.865 318.536C302.011 317.981 301.051 317.704 299.985 317.704C298.918 317.704 297.926 317.981 297.009 318.536C296.113 319.091 295.409 319.869 294.897 320.872C294.385 321.853 294.182 323.027 294.289 324.392C294.182 325.757 294.395 326.952 294.929 327.976C295.483 328.979 296.23 329.757 297.169 330.312C298.129 330.867 299.153 331.144 300.241 331.144C301.499 331.144 302.555 330.845 303.409 330.248C304.262 329.651 304.955 328.904 305.489 328.008L307.537 329.096C307.195 329.864 306.673 330.579 305.969 331.24C305.265 331.88 304.422 332.403 303.441 332.808C302.481 333.192 301.414 333.384 300.241 333.384ZM318.68 333.192C317.144 333.192 315.96 332.744 315.128 331.848C314.296 330.952 313.88 329.672 313.88 328.008V318.248H310.712V315.848H311.512C312.238 315.848 312.814 315.613 313.24 315.144C313.667 314.653 313.88 314.045 313.88 313.32V311.88H316.28V315.848H320.056V318.248H316.28V328.008C316.28 328.584 316.366 329.096 316.536 329.544C316.707 329.971 316.995 330.312 317.4 330.568C317.827 330.824 318.392 330.952 319.096 330.952C319.267 330.952 319.47 330.941 319.704 330.92C319.939 330.899 320.142 330.877 320.312 330.856V333C320.056 333.064 319.768 333.107 319.448 333.128C319.128 333.171 318.872 333.192 318.68 333.192ZM330.479 333.384C328.836 333.384 327.396 332.968 326.159 332.136C324.921 331.304 324.025 330.173 323.471 328.744L325.487 327.784C325.977 328.829 326.66 329.661 327.535 330.28C328.431 330.899 329.412 331.208 330.479 331.208C331.503 331.208 332.367 330.963 333.071 330.472C333.775 329.96 334.127 329.299 334.127 328.488C334.127 327.891 333.956 327.421 333.615 327.08C333.273 326.717 332.879 326.44 332.431 326.248C331.983 326.056 331.588 325.917 331.247 325.832L328.783 325.128C327.204 324.68 326.063 324.051 325.359 323.24C324.655 322.429 324.303 321.491 324.303 320.424C324.303 319.421 324.559 318.547 325.071 317.8C325.583 317.053 326.276 316.477 327.151 316.072C328.025 315.667 328.996 315.464 330.062 315.464C331.513 315.464 332.825 315.848 333.999 316.616C335.193 317.363 336.036 318.408 336.527 319.752L334.479 320.712C334.052 319.752 333.433 319.005 332.623 318.472C331.833 317.917 330.948 317.64 329.967 317.64C329.007 317.64 328.239 317.885 327.663 318.376C327.087 318.867 326.799 319.485 326.799 320.232C326.799 320.808 326.948 321.267 327.247 321.608C327.545 321.949 327.887 322.205 328.271 322.376C328.676 322.547 329.028 322.675 329.327 322.76L332.175 323.592C333.561 323.997 334.639 324.627 335.407 325.48C336.196 326.333 336.591 327.336 336.591 328.488C336.591 329.427 336.324 330.269 335.791 331.016C335.279 331.763 334.564 332.349 333.647 332.776C332.729 333.181 331.673 333.384 330.479 333.384ZM105.584 391V377.59H110.192C111.068 377.59 111.836 377.764 112.496 378.112C113.156 378.448 113.666 378.928 114.026 379.552C114.398 380.164 114.584 380.878 114.584 381.694C114.584 382.51 114.398 383.224 114.026 383.836C113.666 384.448 113.156 384.928 112.496 385.276C111.848 385.612 111.08 385.78 110.192 385.78H107.024V391H105.584ZM107.024 384.43H110.264C110.84 384.43 111.344 384.322 111.776 384.106C112.208 383.878 112.544 383.56 112.784 383.152C113.024 382.732 113.144 382.24 113.144 381.676C113.144 381.112 113.024 380.626 112.784 380.218C112.544 379.81 112.208 379.498 111.776 379.282C111.344 379.054 110.84 378.94 110.264 378.94H107.024V384.43ZM119.022 391.216C118.41 391.216 117.864 391.102 117.384 390.874C116.904 390.634 116.526 390.31 116.25 389.902C115.974 389.494 115.836 389.026 115.836 388.498C115.836 387.994 115.944 387.538 116.16 387.13C116.376 386.71 116.712 386.356 117.168 386.068C117.624 385.78 118.206 385.576 118.914 385.456L122.694 384.826V386.05L119.238 386.626C118.542 386.746 118.038 386.968 117.726 387.292C117.426 387.616 117.276 388 117.276 388.444C117.276 388.876 117.444 389.242 117.78 389.542C118.128 389.842 118.572 389.992 119.112 389.992C119.772 389.992 120.348 389.854 120.84 389.578C121.332 389.29 121.716 388.906 121.992 388.426C122.268 387.946 122.406 387.412 122.406 386.824V384.376C122.406 383.8 122.196 383.332 121.776 382.972C121.356 382.612 120.81 382.432 120.138 382.432C119.55 382.432 119.034 382.582 118.59 382.882C118.146 383.17 117.816 383.548 117.6 384.016L116.376 383.35C116.556 382.942 116.838 382.57 117.222 382.234C117.618 381.898 118.068 381.634 118.572 381.442C119.076 381.238 119.598 381.136 120.138 381.136C120.846 381.136 121.47 381.274 122.01 381.55C122.562 381.826 122.988 382.21 123.288 382.702C123.6 383.182 123.756 383.74 123.756 384.376V391H122.406V389.074L122.604 389.272C122.436 389.632 122.172 389.962 121.812 390.262C121.464 390.55 121.05 390.784 120.57 390.964C120.102 391.132 119.586 391.216 119.022 391.216ZM126.532 391V381.352H127.882V382.936L127.702 382.702C127.93 382.246 128.272 381.886 128.728 381.622C129.196 381.358 129.76 381.226 130.42 381.226H131.032V382.576H130.186C129.49 382.576 128.932 382.792 128.512 383.224C128.092 383.656 127.882 384.268 127.882 385.06V391H126.532ZM135.405 391.216C134.793 391.216 134.247 391.102 133.767 390.874C133.287 390.634 132.909 390.31 132.633 389.902C132.357 389.494 132.219 389.026 132.219 388.498C132.219 387.994 132.327 387.538 132.543 387.13C132.759 386.71 133.095 386.356 133.551 386.068C134.007 385.78 134.589 385.576 135.297 385.456L139.077 384.826V386.05L135.621 386.626C134.925 386.746 134.421 386.968 134.109 387.292C133.809 387.616 133.659 388 133.659 388.444C133.659 388.876 133.827 389.242 134.163 389.542C134.511 389.842 134.955 389.992 135.495 389.992C136.155 389.992 136.731 389.854 137.223 389.578C137.715 389.29 138.099 388.906 138.375 388.426C138.651 387.946 138.789 387.412 138.789 386.824V384.376C138.789 383.8 138.579 383.332 138.159 382.972C137.739 382.612 137.193 382.432 136.521 382.432C135.933 382.432 135.417 382.582 134.973 382.882C134.529 383.17 134.199 383.548 133.983 384.016L132.759 383.35C132.939 382.942 133.221 382.57 133.605 382.234C134.001 381.898 134.451 381.634 134.955 381.442C135.459 381.238 135.981 381.136 136.521 381.136C137.229 381.136 137.853 381.274 138.393 381.55C138.945 381.826 139.371 382.21 139.671 382.702C139.983 383.182 140.139 383.74 140.139 384.376V391H138.789V389.074L138.987 389.272C138.819 389.632 138.555 389.962 138.195 390.262C137.847 390.55 137.433 390.784 136.953 390.964C136.485 391.132 135.969 391.216 135.405 391.216ZM150.852 391.216C150.024 391.216 149.274 391.03 148.602 390.658C147.942 390.274 147.444 389.734 147.108 389.038L147.324 388.84V391H145.974V377.374H147.324V383.512L147.108 383.134C147.492 382.522 148.002 382.036 148.638 381.676C149.286 381.316 150.024 381.136 150.852 381.136C151.764 381.136 152.574 381.358 153.282 381.802C154.002 382.234 154.566 382.828 154.974 383.584C155.394 384.34 155.604 385.204 155.604 386.176C155.604 387.136 155.394 388 154.974 388.768C154.566 389.524 154.002 390.124 153.282 390.568C152.574 391 151.764 391.216 150.852 391.216ZM150.78 389.866C151.428 389.866 152.004 389.704 152.508 389.38C153.024 389.056 153.426 388.618 153.714 388.066C154.014 387.502 154.164 386.872 154.164 386.176C154.164 385.468 154.014 384.838 153.714 384.286C153.426 383.734 153.024 383.296 152.508 382.972C152.004 382.648 151.428 382.486 150.78 382.486C150.132 382.486 149.544 382.648 149.016 382.972C148.5 383.296 148.086 383.74 147.774 384.304C147.474 384.856 147.324 385.48 147.324 386.176C147.324 386.872 147.474 387.502 147.774 388.066C148.086 388.618 148.5 389.056 149.016 389.38C149.544 389.704 150.132 389.866 150.78 389.866ZM160.77 391.216C160.158 391.216 159.612 391.102 159.132 390.874C158.652 390.634 158.274 390.31 157.998 389.902C157.722 389.494 157.584 389.026 157.584 388.498C157.584 387.994 157.692 387.538 157.908 387.13C158.124 386.71 158.46 386.356 158.916 386.068C159.372 385.78 159.954 385.576 160.662 385.456L164.442 384.826V386.05L160.986 386.626C160.29 386.746 159.786 386.968 159.474 387.292C159.174 387.616 159.024 388 159.024 388.444C159.024 388.876 159.192 389.242 159.528 389.542C159.876 389.842 160.32 389.992 160.86 389.992C161.52 389.992 162.096 389.854 162.588 389.578C163.08 389.29 163.464 388.906 163.74 388.426C164.016 387.946 164.154 387.412 164.154 386.824V384.376C164.154 383.8 163.944 383.332 163.524 382.972C163.104 382.612 162.558 382.432 161.886 382.432C161.298 382.432 160.782 382.582 160.338 382.882C159.894 383.17 159.564 383.548 159.348 384.016L158.124 383.35C158.304 382.942 158.586 382.57 158.97 382.234C159.366 381.898 159.816 381.634 160.32 381.442C160.824 381.238 161.346 381.136 161.886 381.136C162.594 381.136 163.218 381.274 163.758 381.55C164.31 381.826 164.736 382.21 165.036 382.702C165.348 383.182 165.504 383.74 165.504 384.376V391H164.154V389.074L164.352 389.272C164.184 389.632 163.92 389.962 163.56 390.262C163.212 390.55 162.798 390.784 162.318 390.964C161.85 391.132 161.334 391.216 160.77 391.216ZM168.281 391V381.352H169.631V391H168.281ZM168.281 379.57V377.59H169.631V379.57H168.281ZM171.206 391L174.59 386.176L171.224 381.352H172.88L175.868 385.69H174.95L177.92 381.352H179.576L176.21 386.176L179.576 391H177.92L174.95 386.662H175.868L172.88 391H171.206ZM183.78 391.216C183.168 391.216 182.622 391.102 182.142 390.874C181.662 390.634 181.284 390.31 181.008 389.902C180.732 389.494 180.594 389.026 180.594 388.498C180.594 387.994 180.702 387.538 180.918 387.13C181.134 386.71 181.47 386.356 181.926 386.068C182.382 385.78 182.964 385.576 183.672 385.456L187.452 384.826V386.05L183.996 386.626C183.3 386.746 182.796 386.968 182.484 387.292C182.184 387.616 182.034 388 182.034 388.444C182.034 388.876 182.202 389.242 182.538 389.542C182.886 389.842 183.33 389.992 183.87 389.992C184.53 389.992 185.106 389.854 185.598 389.578C186.09 389.29 186.474 388.906 186.75 388.426C187.026 387.946 187.164 387.412 187.164 386.824V384.376C187.164 383.8 186.954 383.332 186.534 382.972C186.114 382.612 185.568 382.432 184.896 382.432C184.308 382.432 183.792 382.582 183.348 382.882C182.904 383.17 182.574 383.548 182.358 384.016L181.134 383.35C181.314 382.942 181.596 382.57 181.98 382.234C182.376 381.898 182.826 381.634 183.33 381.442C183.834 381.238 184.356 381.136 184.896 381.136C185.604 381.136 186.228 381.274 186.768 381.55C187.32 381.826 187.746 382.21 188.046 382.702C188.358 383.182 188.514 383.74 188.514 384.376V391H187.164V389.074L187.362 389.272C187.194 389.632 186.93 389.962 186.57 390.262C186.222 390.55 185.808 390.784 185.328 390.964C184.86 391.132 184.344 391.216 183.78 391.216ZM191.29 391V381.352H192.64V382.936L192.46 382.702C192.688 382.246 193.03 381.886 193.486 381.622C193.954 381.358 194.518 381.226 195.178 381.226H195.79V382.576H194.944C194.248 382.576 193.69 382.792 193.27 383.224C192.85 383.656 192.64 384.268 192.64 385.06V391H191.29ZM204.121 391.108C203.257 391.108 202.591 390.856 202.123 390.352C201.655 389.848 201.421 389.128 201.421 388.192V382.702H199.639V381.352H200.089C200.497 381.352 200.821 381.22 201.061 380.956C201.301 380.68 201.421 380.338 201.421 379.93V379.12H202.771V381.352H204.895V382.702H202.771V388.192C202.771 388.516 202.819 388.804 202.915 389.056C203.011 389.296 203.173 389.488 203.401 389.632C203.641 389.776 203.959 389.848 204.355 389.848C204.451 389.848 204.565 389.842 204.697 389.83C204.829 389.818 204.943 389.806 205.039 389.794V391C204.895 391.036 204.733 391.06 204.553 391.072C204.373 391.096 204.229 391.108 204.121 391.108ZM211.576 391.216C210.664 391.216 209.836 391 209.092 390.568C208.348 390.124 207.754 389.524 207.31 388.768C206.878 388 206.662 387.13 206.662 386.158C206.662 385.198 206.878 384.34 207.31 383.584C207.742 382.828 208.324 382.234 209.056 381.802C209.8 381.358 210.64 381.136 211.576 381.136C212.512 381.136 213.346 381.352 214.078 381.784C214.822 382.216 215.404 382.81 215.824 383.566C216.256 384.322 216.472 385.186 216.472 386.158C216.472 387.142 216.25 388.018 215.806 388.786C215.362 389.542 214.768 390.136 214.024 390.568C213.292 391 212.476 391.216 211.576 391.216ZM211.576 389.866C212.224 389.866 212.806 389.704 213.322 389.38C213.85 389.056 214.264 388.612 214.564 388.048C214.876 387.484 215.032 386.854 215.032 386.158C215.032 385.462 214.876 384.838 214.564 384.286C214.264 383.734 213.85 383.296 213.322 382.972C212.806 382.648 212.224 382.486 211.576 382.486C210.928 382.486 210.34 382.648 209.812 382.972C209.296 383.296 208.882 383.734 208.57 384.286C208.258 384.838 208.102 385.462 208.102 386.158C208.102 386.854 208.258 387.484 208.57 388.048C208.882 388.612 209.296 389.056 209.812 389.38C210.34 389.704 210.928 389.866 211.576 389.866ZM223.209 391.216C222.309 391.216 221.499 391 220.779 390.568C220.059 390.124 219.489 389.524 219.069 388.768C218.661 388 218.457 387.136 218.457 386.176C218.457 385.204 218.661 384.34 219.069 383.584C219.489 382.828 220.053 382.234 220.761 381.802C221.481 381.358 222.297 381.136 223.209 381.136C224.037 381.136 224.775 381.316 225.423 381.676C226.071 382.036 226.581 382.522 226.953 383.134L226.737 383.512V377.374H228.087V391H226.737V388.84L226.953 389.038C226.617 389.734 226.113 390.274 225.441 390.658C224.781 391.03 224.037 391.216 223.209 391.216ZM223.281 389.866C223.929 389.866 224.511 389.704 225.027 389.38C225.555 389.056 225.969 388.618 226.269 388.066C226.581 387.502 226.737 386.872 226.737 386.176C226.737 385.48 226.581 384.856 226.269 384.304C225.969 383.74 225.555 383.296 225.027 382.972C224.511 382.648 223.929 382.486 223.281 382.486C222.645 382.486 222.069 382.648 221.553 382.972C221.037 383.296 220.629 383.734 220.329 384.286C220.041 384.838 219.897 385.468 219.897 386.176C219.897 386.872 220.041 387.502 220.329 388.066C220.629 388.618 221.031 389.056 221.535 389.38C222.051 389.704 222.633 389.866 223.281 389.866ZM235.377 391.216C234.465 391.216 233.637 391 232.893 390.568C232.149 390.124 231.555 389.524 231.111 388.768C230.679 388 230.463 387.13 230.463 386.158C230.463 385.198 230.679 384.34 231.111 383.584C231.543 382.828 232.125 382.234 232.857 381.802C233.601 381.358 234.441 381.136 235.377 381.136C236.313 381.136 237.147 381.352 237.879 381.784C238.623 382.216 239.205 382.81 239.625 383.566C240.057 384.322 240.273 385.186 240.273 386.158C240.273 387.142 240.051 388.018 239.607 388.786C239.163 389.542 238.569 390.136 237.825 390.568C237.093 391 236.277 391.216 235.377 391.216ZM235.377 389.866C236.025 389.866 236.607 389.704 237.123 389.38C237.651 389.056 238.065 388.612 238.365 388.048C238.677 387.484 238.833 386.854 238.833 386.158C238.833 385.462 238.677 384.838 238.365 384.286C238.065 383.734 237.651 383.296 237.123 382.972C236.607 382.648 236.025 382.486 235.377 382.486C234.729 382.486 234.141 382.648 233.613 382.972C233.097 383.296 232.683 383.734 232.371 384.286C232.059 384.838 231.903 385.462 231.903 386.158C231.903 386.854 232.059 387.484 232.371 388.048C232.683 388.612 233.097 389.056 233.613 389.38C234.141 389.704 234.729 389.866 235.377 389.866ZM246.002 391.216C245.078 391.216 244.268 390.982 243.572 390.514C242.876 390.046 242.372 389.41 242.06 388.606L243.194 388.066C243.47 388.654 243.854 389.122 244.346 389.47C244.85 389.818 245.402 389.992 246.002 389.992C246.578 389.992 247.064 389.854 247.46 389.578C247.856 389.29 248.054 388.918 248.054 388.462C248.054 388.126 247.958 387.862 247.766 387.67C247.574 387.466 247.352 387.31 247.1 387.202C246.848 387.094 246.626 387.016 246.434 386.968L245.048 386.572C244.16 386.32 243.518 385.966 243.122 385.51C242.726 385.054 242.528 384.526 242.528 383.926C242.528 383.362 242.672 382.87 242.96 382.45C243.248 382.03 243.638 381.706 244.13 381.478C244.622 381.25 245.168 381.136 245.768 381.136C246.584 381.136 247.322 381.352 247.982 381.784C248.654 382.204 249.128 382.792 249.404 383.548L248.252 384.088C248.012 383.548 247.664 383.128 247.208 382.828C246.764 382.516 246.266 382.36 245.714 382.36C245.174 382.36 244.742 382.498 244.418 382.774C244.094 383.05 243.932 383.398 243.932 383.818C243.932 384.142 244.016 384.4 244.184 384.592C244.352 384.784 244.544 384.928 244.76 385.024C244.988 385.12 245.186 385.192 245.354 385.24L246.956 385.708C247.736 385.936 248.342 386.29 248.774 386.77C249.218 387.25 249.44 387.814 249.44 388.462C249.44 388.99 249.29 389.464 248.99 389.884C248.702 390.304 248.3 390.634 247.784 390.874C247.268 391.102 246.674 391.216 246.002 391.216ZM259.388 391.216C258.476 391.216 257.648 391 256.904 390.568C256.16 390.124 255.566 389.524 255.122 388.768C254.69 388 254.474 387.13 254.474 386.158C254.474 385.198 254.69 384.34 255.122 383.584C255.554 382.828 256.136 382.234 256.868 381.802C257.612 381.358 258.452 381.136 259.388 381.136C260.324 381.136 261.158 381.352 261.89 381.784C262.634 382.216 263.216 382.81 263.636 383.566C264.068 384.322 264.284 385.186 264.284 386.158C264.284 387.142 264.062 388.018 263.618 388.786C263.174 389.542 262.58 390.136 261.836 390.568C261.104 391 260.288 391.216 259.388 391.216ZM259.388 389.866C260.036 389.866 260.618 389.704 261.134 389.38C261.662 389.056 262.076 388.612 262.376 388.048C262.688 387.484 262.844 386.854 262.844 386.158C262.844 385.462 262.688 384.838 262.376 384.286C262.076 383.734 261.662 383.296 261.134 382.972C260.618 382.648 260.036 382.486 259.388 382.486C258.74 382.486 258.152 382.648 257.624 382.972C257.108 383.296 256.694 383.734 256.382 384.286C256.07 384.838 255.914 385.462 255.914 386.158C255.914 386.854 256.07 387.484 256.382 388.048C256.694 388.612 257.108 389.056 257.624 389.38C258.152 389.704 258.74 389.866 259.388 389.866ZM270.013 391.216C269.089 391.216 268.279 390.982 267.583 390.514C266.887 390.046 266.383 389.41 266.071 388.606L267.205 388.066C267.481 388.654 267.865 389.122 268.357 389.47C268.861 389.818 269.413 389.992 270.013 389.992C270.589 389.992 271.075 389.854 271.471 389.578C271.867 389.29 272.065 388.918 272.065 388.462C272.065 388.126 271.969 387.862 271.777 387.67C271.585 387.466 271.363 387.31 271.111 387.202C270.859 387.094 270.637 387.016 270.445 386.968L269.059 386.572C268.171 386.32 267.529 385.966 267.133 385.51C266.737 385.054 266.539 384.526 266.539 383.926C266.539 383.362 266.683 382.87 266.971 382.45C267.259 382.03 267.649 381.706 268.141 381.478C268.633 381.25 269.179 381.136 269.779 381.136C270.595 381.136 271.333 381.352 271.993 381.784C272.665 382.204 273.139 382.792 273.415 383.548L272.263 384.088C272.023 383.548 271.675 383.128 271.219 382.828C270.775 382.516 270.277 382.36 269.725 382.36C269.185 382.36 268.753 382.498 268.429 382.774C268.105 383.05 267.943 383.398 267.943 383.818C267.943 384.142 268.027 384.4 268.195 384.592C268.363 384.784 268.555 384.928 268.771 385.024C268.999 385.12 269.197 385.192 269.365 385.24L270.967 385.708C271.747 385.936 272.353 386.29 272.785 386.77C273.229 387.25 273.451 387.814 273.451 388.462C273.451 388.99 273.301 389.464 273.001 389.884C272.713 390.304 272.311 390.634 271.795 390.874C271.279 391.102 270.685 391.216 270.013 391.216ZM281.672 391.216C281.06 391.216 280.514 391.102 280.034 390.874C279.554 390.634 279.176 390.31 278.9 389.902C278.624 389.494 278.486 389.026 278.486 388.498C278.486 387.994 278.594 387.538 278.81 387.13C279.026 386.71 279.362 386.356 279.818 386.068C280.274 385.78 280.856 385.576 281.564 385.456L285.344 384.826V386.05L281.888 386.626C281.192 386.746 280.688 386.968 280.376 387.292C280.076 387.616 279.926 388 279.926 388.444C279.926 388.876 280.094 389.242 280.43 389.542C280.778 389.842 281.222 389.992 281.762 389.992C282.422 389.992 282.998 389.854 283.49 389.578C283.982 389.29 284.366 388.906 284.642 388.426C284.918 387.946 285.056 387.412 285.056 386.824V384.376C285.056 383.8 284.846 383.332 284.426 382.972C284.006 382.612 283.46 382.432 282.788 382.432C282.2 382.432 281.684 382.582 281.24 382.882C280.796 383.17 280.466 383.548 280.25 384.016L279.026 383.35C279.206 382.942 279.488 382.57 279.872 382.234C280.268 381.898 280.718 381.634 281.222 381.442C281.726 381.238 282.248 381.136 282.788 381.136C283.496 381.136 284.12 381.274 284.66 381.55C285.212 381.826 285.638 382.21 285.938 382.702C286.25 383.182 286.406 383.74 286.406 384.376V391H285.056V389.074L285.254 389.272C285.086 389.632 284.822 389.962 284.462 390.262C284.114 390.55 283.7 390.784 283.22 390.964C282.752 391.132 282.236 391.216 281.672 391.216ZM292.531 391.216C291.607 391.216 290.797 390.982 290.101 390.514C289.405 390.046 288.901 389.41 288.589 388.606L289.723 388.066C289.999 388.654 290.383 389.122 290.875 389.47C291.379 389.818 291.931 389.992 292.531 389.992C293.107 389.992 293.593 389.854 293.989 389.578C294.385 389.29 294.583 388.918 294.583 388.462C294.583 388.126 294.487 387.862 294.295 387.67C294.103 387.466 293.881 387.31 293.629 387.202C293.377 387.094 293.155 387.016 292.963 386.968L291.577 386.572C290.689 386.32 290.047 385.966 289.651 385.51C289.255 385.054 289.057 384.526 289.057 383.926C289.057 383.362 289.201 382.87 289.489 382.45C289.777 382.03 290.167 381.706 290.659 381.478C291.151 381.25 291.697 381.136 292.297 381.136C293.113 381.136 293.851 381.352 294.511 381.784C295.183 382.204 295.657 382.792 295.933 383.548L294.781 384.088C294.541 383.548 294.193 383.128 293.737 382.828C293.293 382.516 292.795 382.36 292.243 382.36C291.703 382.36 291.271 382.498 290.947 382.774C290.623 383.05 290.461 383.398 290.461 383.818C290.461 384.142 290.545 384.4 290.713 384.592C290.881 384.784 291.073 384.928 291.289 385.024C291.517 385.12 291.715 385.192 291.883 385.24L293.485 385.708C294.265 385.936 294.871 386.29 295.303 386.77C295.747 387.25 295.969 387.814 295.969 388.462C295.969 388.99 295.819 389.464 295.519 389.884C295.231 390.304 294.829 390.634 294.313 390.874C293.797 391.102 293.203 391.216 292.531 391.216ZM301.689 391.216C300.765 391.216 299.955 390.982 299.259 390.514C298.563 390.046 298.059 389.41 297.747 388.606L298.881 388.066C299.157 388.654 299.541 389.122 300.033 389.47C300.537 389.818 301.089 389.992 301.689 389.992C302.265 389.992 302.751 389.854 303.147 389.578C303.543 389.29 303.741 388.918 303.741 388.462C303.741 388.126 303.645 387.862 303.453 387.67C303.261 387.466 303.039 387.31 302.787 387.202C302.535 387.094 302.313 387.016 302.121 386.968L300.735 386.572C299.847 386.32 299.205 385.966 298.809 385.51C298.413 385.054 298.215 384.526 298.215 383.926C298.215 383.362 298.359 382.87 298.647 382.45C298.935 382.03 299.325 381.706 299.817 381.478C300.309 381.25 300.855 381.136 301.455 381.136C302.271 381.136 303.009 381.352 303.669 381.784C304.341 382.204 304.815 382.792 305.091 383.548L303.939 384.088C303.699 383.548 303.351 383.128 302.895 382.828C302.451 382.516 301.953 382.36 301.401 382.36C300.861 382.36 300.429 382.498 300.105 382.774C299.781 383.05 299.619 383.398 299.619 383.818C299.619 384.142 299.703 384.4 299.871 384.592C300.039 384.784 300.231 384.928 300.447 385.024C300.675 385.12 300.873 385.192 301.041 385.24L302.643 385.708C303.423 385.936 304.029 386.29 304.461 386.77C304.905 387.25 305.127 387.814 305.127 388.462C305.127 388.99 304.977 389.464 304.677 389.884C304.389 390.304 303.987 390.634 303.471 390.874C302.955 391.102 302.361 391.216 301.689 391.216ZM311.891 391.216C310.991 391.216 310.175 391 309.443 390.568C308.723 390.124 308.153 389.518 307.733 388.75C307.313 387.982 307.103 387.112 307.103 386.14C307.103 385.168 307.307 384.31 307.715 383.566C308.123 382.81 308.675 382.216 309.371 381.784C310.079 381.352 310.871 381.136 311.747 381.136C312.443 381.136 313.061 381.268 313.601 381.532C314.153 381.784 314.621 382.132 315.005 382.576C315.389 383.008 315.683 383.5 315.887 384.052C316.091 384.592 316.193 385.15 316.193 385.726C316.193 385.846 316.187 385.984 316.175 386.14C316.163 386.284 316.145 386.434 316.121 386.59H307.967V385.33H315.347L314.699 385.87C314.807 385.21 314.729 384.622 314.465 384.106C314.213 383.578 313.847 383.164 313.367 382.864C312.887 382.552 312.347 382.396 311.747 382.396C311.147 382.396 310.589 382.552 310.073 382.864C309.569 383.176 309.173 383.614 308.885 384.178C308.597 384.73 308.483 385.39 308.543 386.158C308.483 386.926 308.603 387.598 308.903 388.174C309.215 388.738 309.635 389.176 310.163 389.488C310.703 389.8 311.279 389.956 311.891 389.956C312.599 389.956 313.193 389.788 313.673 389.452C314.153 389.116 314.543 388.696 314.843 388.192L315.995 388.804C315.803 389.236 315.509 389.638 315.113 390.01C314.717 390.37 314.243 390.664 313.691 390.892C313.151 391.108 312.551 391.216 311.891 391.216ZM322.264 391.108C321.4 391.108 320.734 390.856 320.266 390.352C319.798 389.848 319.563 389.128 319.563 388.192V382.702H317.781V381.352H318.232C318.64 381.352 318.964 381.22 319.204 380.956C319.444 380.68 319.563 380.338 319.563 379.93V379.12H320.914V381.352H323.038V382.702H320.914V388.192C320.914 388.516 320.962 388.804 321.058 389.056C321.154 389.296 321.316 389.488 321.544 389.632C321.784 389.776 322.102 389.848 322.498 389.848C322.594 389.848 322.708 389.842 322.84 389.83C322.972 389.818 323.086 389.806 323.182 389.794V391C323.038 391.036 322.876 391.06 322.696 391.072C322.516 391.096 322.372 391.108 322.264 391.108ZM328.9 391.216C327.976 391.216 327.166 390.982 326.47 390.514C325.774 390.046 325.27 389.41 324.958 388.606L326.092 388.066C326.368 388.654 326.752 389.122 327.244 389.47C327.748 389.818 328.3 389.992 328.9 389.992C329.476 389.992 329.962 389.854 330.358 389.578C330.754 389.29 330.952 388.918 330.952 388.462C330.952 388.126 330.856 387.862 330.664 387.67C330.472 387.466 330.25 387.31 329.998 387.202C329.746 387.094 329.524 387.016 329.332 386.968L327.946 386.572C327.058 386.32 326.416 385.966 326.02 385.51C325.624 385.054 325.426 384.526 325.426 383.926C325.426 383.362 325.57 382.87 325.858 382.45C326.146 382.03 326.536 381.706 327.028 381.478C327.52 381.25 328.066 381.136 328.666 381.136C329.482 381.136 330.22 381.352 330.88 381.784C331.552 382.204 332.026 382.792 332.302 383.548L331.15 384.088C330.91 383.548 330.562 383.128 330.106 382.828C329.662 382.516 329.164 382.36 328.612 382.36C328.072 382.36 327.64 382.498 327.316 382.774C326.992 383.05 326.83 383.398 326.83 383.818C326.83 384.142 326.914 384.4 327.082 384.592C327.25 384.784 327.442 384.928 327.658 385.024C327.886 385.12 328.084 385.192 328.252 385.24L329.854 385.708C330.634 385.936 331.24 386.29 331.672 386.77C332.116 387.25 332.338 387.814 332.338 388.462C332.338 388.99 332.188 389.464 331.888 389.884C331.6 390.304 331.198 390.634 330.682 390.874C330.166 391.102 329.572 391.216 328.9 391.216ZM342.125 391.216C341.225 391.216 340.415 391 339.695 390.568C338.975 390.124 338.405 389.524 337.985 388.768C337.577 388 337.373 387.136 337.373 386.176C337.373 385.204 337.577 384.34 337.985 383.584C338.405 382.828 338.969 382.234 339.677 381.802C340.397 381.358 341.213 381.136 342.125 381.136C342.953 381.136 343.691 381.316 344.339 381.676C344.987 382.036 345.497 382.522 345.869 383.134L345.653 383.512V377.374H347.003V391H345.653V388.84L345.869 389.038C345.533 389.734 345.029 390.274 344.357 390.658C343.697 391.03 342.953 391.216 342.125 391.216ZM342.197 389.866C342.845 389.866 343.427 389.704 343.943 389.38C344.471 389.056 344.885 388.618 345.185 388.066C345.497 387.502 345.653 386.872 345.653 386.176C345.653 385.48 345.497 384.856 345.185 384.304C344.885 383.74 344.471 383.296 343.943 382.972C343.427 382.648 342.845 382.486 342.197 382.486C341.561 382.486 340.985 382.648 340.469 382.972C339.953 383.296 339.545 383.734 339.245 384.286C338.957 384.838 338.813 385.468 338.813 386.176C338.813 386.872 338.957 387.502 339.245 388.066C339.545 388.618 339.947 389.056 340.451 389.38C340.967 389.704 341.549 389.866 342.197 389.866ZM354.293 391.216C353.381 391.216 352.553 391 351.809 390.568C351.065 390.124 350.471 389.524 350.027 388.768C349.595 388 349.379 387.13 349.379 386.158C349.379 385.198 349.595 384.34 350.027 383.584C350.459 382.828 351.041 382.234 351.773 381.802C352.517 381.358 353.357 381.136 354.293 381.136C355.229 381.136 356.063 381.352 356.795 381.784C357.539 382.216 358.121 382.81 358.541 383.566C358.973 384.322 359.189 385.186 359.189 386.158C359.189 387.142 358.967 388.018 358.523 388.786C358.079 389.542 357.485 390.136 356.741 390.568C356.009 391 355.193 391.216 354.293 391.216ZM354.293 389.866C354.941 389.866 355.523 389.704 356.039 389.38C356.567 389.056 356.981 388.612 357.281 388.048C357.593 387.484 357.749 386.854 357.749 386.158C357.749 385.462 357.593 384.838 357.281 384.286C356.981 383.734 356.567 383.296 356.039 382.972C355.523 382.648 354.941 382.486 354.293 382.486C353.645 382.486 353.057 382.648 352.529 382.972C352.013 383.296 351.599 383.734 351.287 384.286C350.975 384.838 350.819 385.462 350.819 386.158C350.819 386.854 350.975 387.484 351.287 388.048C351.599 388.612 352.013 389.056 352.529 389.38C353.057 389.704 353.645 389.866 354.293 389.866ZM105.386 423.6V410.352H106.736V412.512L106.52 412.134C106.904 411.522 107.414 411.036 108.05 410.676C108.698 410.316 109.436 410.136 110.264 410.136C111.176 410.136 111.986 410.358 112.694 410.802C113.414 411.234 113.978 411.828 114.386 412.584C114.806 413.34 115.016 414.204 115.016 415.176C115.016 416.136 114.806 417 114.386 417.768C113.978 418.524 113.414 419.124 112.694 419.568C111.986 420 111.176 420.216 110.264 420.216C109.436 420.216 108.686 420.03 108.014 419.658C107.354 419.274 106.856 418.734 106.52 418.038L106.736 417.84V423.6H105.386ZM110.192 418.866C110.84 418.866 111.416 418.704 111.92 418.38C112.436 418.056 112.838 417.618 113.126 417.066C113.426 416.502 113.576 415.872 113.576 415.176C113.576 414.468 113.426 413.838 113.126 413.286C112.838 412.734 112.436 412.296 111.92 411.972C111.416 411.648 110.84 411.486 110.192 411.486C109.544 411.486 108.956 411.648 108.428 411.972C107.912 412.296 107.498 412.74 107.186 413.304C106.886 413.856 106.736 414.48 106.736 415.176C106.736 415.872 106.886 416.502 107.186 417.066C107.498 417.618 107.912 418.056 108.428 418.38C108.956 418.704 109.544 418.866 110.192 418.866ZM117.392 420V410.352H118.742V411.936L118.562 411.702C118.79 411.246 119.132 410.886 119.588 410.622C120.056 410.358 120.62 410.226 121.28 410.226H121.892V411.576H121.046C120.35 411.576 119.792 411.792 119.372 412.224C118.952 412.656 118.742 413.268 118.742 414.06V420H117.392ZM127.992 420.216C127.08 420.216 126.252 420 125.508 419.568C124.764 419.124 124.17 418.524 123.726 417.768C123.294 417 123.078 416.13 123.078 415.158C123.078 414.198 123.294 413.34 123.726 412.584C124.158 411.828 124.74 411.234 125.472 410.802C126.216 410.358 127.056 410.136 127.992 410.136C128.928 410.136 129.762 410.352 130.494 410.784C131.238 411.216 131.82 411.81 132.24 412.566C132.672 413.322 132.888 414.186 132.888 415.158C132.888 416.142 132.666 417.018 132.222 417.786C131.778 418.542 131.184 419.136 130.44 419.568C129.708 420 128.892 420.216 127.992 420.216ZM127.992 418.866C128.64 418.866 129.222 418.704 129.738 418.38C130.266 418.056 130.68 417.612 130.98 417.048C131.292 416.484 131.448 415.854 131.448 415.158C131.448 414.462 131.292 413.838 130.98 413.286C130.68 412.734 130.266 412.296 129.738 411.972C129.222 411.648 128.64 411.486 127.992 411.486C127.344 411.486 126.756 411.648 126.228 411.972C125.712 412.296 125.298 412.734 124.986 413.286C124.674 413.838 124.518 414.462 124.518 415.158C124.518 415.854 124.674 416.484 124.986 417.048C125.298 417.612 125.712 418.056 126.228 418.38C126.756 418.704 127.344 418.866 127.992 418.866ZM133.469 423.96C133.385 423.96 133.271 423.954 133.127 423.942C132.971 423.93 132.845 423.912 132.749 423.888V422.646C133.001 422.682 133.253 422.7 133.505 422.7C133.997 422.7 134.411 422.55 134.747 422.25C135.095 421.95 135.269 421.5 135.269 420.9V410.352H136.619V420.9C136.619 421.56 136.475 422.118 136.187 422.574C135.899 423.03 135.515 423.372 135.035 423.6C134.567 423.84 134.045 423.96 133.469 423.96ZM135.269 408.57V406.59H136.619V408.57H135.269ZM143.774 420.216C142.874 420.216 142.058 420 141.326 419.568C140.606 419.124 140.036 418.518 139.616 417.75C139.196 416.982 138.986 416.112 138.986 415.14C138.986 414.168 139.19 413.31 139.598 412.566C140.006 411.81 140.558 411.216 141.254 410.784C141.962 410.352 142.754 410.136 143.63 410.136C144.326 410.136 144.944 410.268 145.484 410.532C146.036 410.784 146.504 411.132 146.888 411.576C147.272 412.008 147.566 412.5 147.77 413.052C147.974 413.592 148.076 414.15 148.076 414.726C148.076 414.846 148.07 414.984 148.058 415.14C148.046 415.284 148.028 415.434 148.004 415.59H139.85V414.33H147.23L146.582 414.87C146.69 414.21 146.612 413.622 146.348 413.106C146.096 412.578 145.73 412.164 145.25 411.864C144.77 411.552 144.23 411.396 143.63 411.396C143.03 411.396 142.472 411.552 141.956 411.864C141.452 412.176 141.056 412.614 140.768 413.178C140.48 413.73 140.366 414.39 140.426 415.158C140.366 415.926 140.486 416.598 140.786 417.174C141.098 417.738 141.518 418.176 142.046 418.488C142.586 418.8 143.162 418.956 143.774 418.956C144.482 418.956 145.076 418.788 145.556 418.452C146.036 418.116 146.426 417.696 146.726 417.192L147.878 417.804C147.686 418.236 147.392 418.638 146.996 419.01C146.6 419.37 146.126 419.664 145.574 419.892C145.034 420.108 144.434 420.216 143.774 420.216ZM154.146 420.108C153.282 420.108 152.616 419.856 152.148 419.352C151.68 418.848 151.446 418.128 151.446 417.192V411.702H149.664V410.352H150.114C150.522 410.352 150.846 410.22 151.086 409.956C151.326 409.68 151.446 409.338 151.446 408.93V408.12H152.796V410.352H154.92V411.702H152.796V417.192C152.796 417.516 152.844 417.804 152.94 418.056C153.036 418.296 153.198 418.488 153.426 418.632C153.666 418.776 153.984 418.848 154.38 418.848C154.476 418.848 154.59 418.842 154.722 418.83C154.854 418.818 154.968 418.806 155.064 418.794V420C154.92 420.036 154.758 420.06 154.578 420.072C154.398 420.096 154.254 420.108 154.146 420.108ZM161.601 420.216C160.689 420.216 159.861 420 159.117 419.568C158.373 419.124 157.779 418.524 157.335 417.768C156.903 417 156.687 416.13 156.687 415.158C156.687 414.198 156.903 413.34 157.335 412.584C157.767 411.828 158.349 411.234 159.081 410.802C159.825 410.358 160.665 410.136 161.601 410.136C162.537 410.136 163.371 410.352 164.103 410.784C164.847 411.216 165.429 411.81 165.849 412.566C166.281 413.322 166.497 414.186 166.497 415.158C166.497 416.142 166.275 417.018 165.831 417.786C165.387 418.542 164.793 419.136 164.049 419.568C163.317 420 162.501 420.216 161.601 420.216ZM161.601 418.866C162.249 418.866 162.831 418.704 163.347 418.38C163.875 418.056 164.289 417.612 164.589 417.048C164.901 416.484 165.057 415.854 165.057 415.158C165.057 414.462 164.901 413.838 164.589 413.286C164.289 412.734 163.875 412.296 163.347 411.972C162.831 411.648 162.249 411.486 161.601 411.486C160.953 411.486 160.365 411.648 159.837 411.972C159.321 412.296 158.907 412.734 158.595 413.286C158.283 413.838 158.127 414.462 158.127 415.158C158.127 415.854 158.283 416.484 158.595 417.048C158.907 417.612 159.321 418.056 159.837 418.38C160.365 418.704 160.953 418.866 161.601 418.866ZM168.932 422.34V421.71C169.292 421.614 169.556 421.428 169.724 421.152C169.892 420.876 169.976 420.492 169.976 420H169.292V418.02H170.732V419.532C170.732 420.312 170.582 420.936 170.282 421.404C169.982 421.884 169.532 422.196 168.932 422.34ZM180.208 420.216C179.536 420.216 178.924 420.06 178.372 419.748C177.82 419.424 177.382 418.98 177.058 418.416C176.746 417.84 176.59 417.18 176.59 416.436V410.352H177.94V416.274C177.94 416.79 178.042 417.246 178.246 417.642C178.462 418.026 178.756 418.326 179.128 418.542C179.512 418.758 179.95 418.866 180.442 418.866C180.934 418.866 181.372 418.758 181.756 418.542C182.14 418.314 182.44 417.996 182.656 417.588C182.872 417.168 182.98 416.67 182.98 416.094V410.352H184.33V420H182.98V418.128L183.286 418.2C183.058 418.824 182.668 419.316 182.116 419.676C181.564 420.036 180.928 420.216 180.208 420.216ZM190.455 420.216C189.531 420.216 188.721 419.982 188.025 419.514C187.329 419.046 186.825 418.41 186.513 417.606L187.647 417.066C187.923 417.654 188.307 418.122 188.799 418.47C189.303 418.818 189.855 418.992 190.455 418.992C191.031 418.992 191.517 418.854 191.913 418.578C192.309 418.29 192.507 417.918 192.507 417.462C192.507 417.126 192.411 416.862 192.219 416.67C192.027 416.466 191.805 416.31 191.553 416.202C191.301 416.094 191.079 416.016 190.887 415.968L189.501 415.572C188.613 415.32 187.971 414.966 187.575 414.51C187.179 414.054 186.981 413.526 186.981 412.926C186.981 412.362 187.125 411.87 187.413 411.45C187.701 411.03 188.091 410.706 188.583 410.478C189.075 410.25 189.621 410.136 190.221 410.136C191.037 410.136 191.775 410.352 192.435 410.784C193.107 411.204 193.581 411.792 193.857 412.548L192.705 413.088C192.465 412.548 192.117 412.128 191.661 411.828C191.217 411.516 190.719 411.36 190.167 411.36C189.627 411.36 189.195 411.498 188.871 411.774C188.547 412.05 188.385 412.398 188.385 412.818C188.385 413.142 188.469 413.4 188.637 413.592C188.805 413.784 188.997 413.928 189.213 414.024C189.441 414.12 189.639 414.192 189.807 414.24L191.409 414.708C192.189 414.936 192.795 415.29 193.227 415.77C193.671 416.25 193.893 416.814 193.893 417.462C193.893 417.99 193.743 418.464 193.443 418.884C193.155 419.304 192.753 419.634 192.237 419.874C191.721 420.102 191.127 420.216 190.455 420.216ZM200.657 420.216C199.757 420.216 198.941 420 198.209 419.568C197.489 419.124 196.919 418.518 196.499 417.75C196.079 416.982 195.869 416.112 195.869 415.14C195.869 414.168 196.073 413.31 196.481 412.566C196.889 411.81 197.441 411.216 198.137 410.784C198.845 410.352 199.637 410.136 200.513 410.136C201.209 410.136 201.827 410.268 202.367 410.532C202.919 410.784 203.387 411.132 203.771 411.576C204.155 412.008 204.449 412.5 204.653 413.052C204.857 413.592 204.959 414.15 204.959 414.726C204.959 414.846 204.953 414.984 204.941 415.14C204.929 415.284 204.911 415.434 204.887 415.59H196.733V414.33H204.113L203.465 414.87C203.573 414.21 203.495 413.622 203.231 413.106C202.979 412.578 202.613 412.164 202.133 411.864C201.653 411.552 201.113 411.396 200.513 411.396C199.913 411.396 199.355 411.552 198.839 411.864C198.335 412.176 197.939 412.614 197.651 413.178C197.363 413.73 197.249 414.39 197.309 415.158C197.249 415.926 197.369 416.598 197.669 417.174C197.981 417.738 198.401 418.176 198.929 418.488C199.469 418.8 200.045 418.956 200.657 418.956C201.365 418.956 201.959 418.788 202.439 418.452C202.919 418.116 203.309 417.696 203.609 417.192L204.761 417.804C204.569 418.236 204.275 418.638 203.879 419.01C203.483 419.37 203.009 419.664 202.457 419.892C201.917 420.108 201.317 420.216 200.657 420.216ZM214.916 420.216C214.004 420.216 213.176 420 212.432 419.568C211.688 419.124 211.094 418.524 210.65 417.768C210.218 417 210.002 416.13 210.002 415.158C210.002 414.198 210.218 413.34 210.65 412.584C211.082 411.828 211.664 411.234 212.396 410.802C213.14 410.358 213.98 410.136 214.916 410.136C215.852 410.136 216.686 410.352 217.418 410.784C218.162 411.216 218.744 411.81 219.164 412.566C219.596 413.322 219.812 414.186 219.812 415.158C219.812 416.142 219.59 417.018 219.146 417.786C218.702 418.542 218.108 419.136 217.364 419.568C216.632 420 215.816 420.216 214.916 420.216ZM214.916 418.866C215.564 418.866 216.146 418.704 216.662 418.38C217.19 418.056 217.604 417.612 217.904 417.048C218.216 416.484 218.372 415.854 218.372 415.158C218.372 414.462 218.216 413.838 217.904 413.286C217.604 412.734 217.19 412.296 216.662 411.972C216.146 411.648 215.564 411.486 214.916 411.486C214.268 411.486 213.68 411.648 213.152 411.972C212.636 412.296 212.222 412.734 211.91 413.286C211.598 413.838 211.442 414.462 211.442 415.158C211.442 415.854 211.598 416.484 211.91 417.048C212.222 417.612 212.636 418.056 213.152 418.38C213.68 418.704 214.268 418.866 214.916 418.866ZM225.541 420.216C224.617 420.216 223.807 419.982 223.111 419.514C222.415 419.046 221.911 418.41 221.599 417.606L222.733 417.066C223.009 417.654 223.393 418.122 223.885 418.47C224.389 418.818 224.941 418.992 225.541 418.992C226.117 418.992 226.603 418.854 226.999 418.578C227.395 418.29 227.593 417.918 227.593 417.462C227.593 417.126 227.497 416.862 227.305 416.67C227.113 416.466 226.891 416.31 226.639 416.202C226.387 416.094 226.165 416.016 225.973 415.968L224.587 415.572C223.699 415.32 223.057 414.966 222.661 414.51C222.265 414.054 222.067 413.526 222.067 412.926C222.067 412.362 222.211 411.87 222.499 411.45C222.787 411.03 223.177 410.706 223.669 410.478C224.161 410.25 224.707 410.136 225.307 410.136C226.123 410.136 226.861 410.352 227.521 410.784C228.193 411.204 228.667 411.792 228.943 412.548L227.791 413.088C227.551 412.548 227.203 412.128 226.747 411.828C226.303 411.516 225.805 411.36 225.253 411.36C224.713 411.36 224.281 411.498 223.957 411.774C223.633 412.05 223.471 412.398 223.471 412.818C223.471 413.142 223.555 413.4 223.723 413.592C223.891 413.784 224.083 413.928 224.299 414.024C224.527 414.12 224.725 414.192 224.893 414.24L226.495 414.708C227.275 414.936 227.881 415.29 228.313 415.77C228.757 416.25 228.979 416.814 228.979 417.462C228.979 417.99 228.829 418.464 228.529 418.884C228.241 419.304 227.839 419.634 227.323 419.874C226.807 420.102 226.213 420.216 225.541 420.216ZM237.199 420.216C236.587 420.216 236.041 420.102 235.561 419.874C235.081 419.634 234.703 419.31 234.427 418.902C234.151 418.494 234.013 418.026 234.013 417.498C234.013 416.994 234.121 416.538 234.337 416.13C234.553 415.71 234.889 415.356 235.345 415.068C235.801 414.78 236.383 414.576 237.091 414.456L240.871 413.826V415.05L237.415 415.626C236.719 415.746 236.215 415.968 235.903 416.292C235.603 416.616 235.453 417 235.453 417.444C235.453 417.876 235.621 418.242 235.957 418.542C236.305 418.842 236.749 418.992 237.289 418.992C237.949 418.992 238.525 418.854 239.017 418.578C239.509 418.29 239.893 417.906 240.169 417.426C240.445 416.946 240.583 416.412 240.583 415.824V413.376C240.583 412.8 240.373 412.332 239.953 411.972C239.533 411.612 238.987 411.432 238.315 411.432C237.727 411.432 237.211 411.582 236.767 411.882C236.323 412.17 235.993 412.548 235.777 413.016L234.553 412.35C234.733 411.942 235.015 411.57 235.399 411.234C235.795 410.898 236.245 410.634 236.749 410.442C237.253 410.238 237.775 410.136 238.315 410.136C239.023 410.136 239.647 410.274 240.187 410.55C240.739 410.826 241.165 411.21 241.465 411.702C241.777 412.182 241.933 412.74 241.933 413.376V420H240.583V418.074L240.781 418.272C240.613 418.632 240.349 418.962 239.989 419.262C239.641 419.55 239.227 419.784 238.747 419.964C238.279 420.132 237.763 420.216 237.199 420.216ZM248.224 420.108C247.36 420.108 246.694 419.856 246.226 419.352C245.758 418.848 245.524 418.128 245.524 417.192V411.702H243.742V410.352H244.192C244.6 410.352 244.924 410.22 245.164 409.956C245.404 409.68 245.524 409.338 245.524 408.93V408.12H246.874V410.352H248.998V411.702H246.874V417.192C246.874 417.516 246.922 417.804 247.018 418.056C247.114 418.296 247.276 418.488 247.504 418.632C247.744 418.776 248.062 418.848 248.458 418.848C248.554 418.848 248.668 418.842 248.8 418.83C248.932 418.818 249.046 418.806 249.142 418.794V420C248.998 420.036 248.836 420.06 248.656 420.072C248.476 420.096 248.332 420.108 248.224 420.108ZM254.127 420.216C253.515 420.216 252.969 420.102 252.489 419.874C252.009 419.634 251.631 419.31 251.355 418.902C251.079 418.494 250.941 418.026 250.941 417.498C250.941 416.994 251.049 416.538 251.265 416.13C251.481 415.71 251.817 415.356 252.273 415.068C252.729 414.78 253.311 414.576 254.019 414.456L257.799 413.826V415.05L254.343 415.626C253.647 415.746 253.143 415.968 252.831 416.292C252.531 416.616 252.381 417 252.381 417.444C252.381 417.876 252.549 418.242 252.885 418.542C253.233 418.842 253.677 418.992 254.217 418.992C254.877 418.992 255.453 418.854 255.945 418.578C256.437 418.29 256.821 417.906 257.097 417.426C257.373 416.946 257.511 416.412 257.511 415.824V413.376C257.511 412.8 257.301 412.332 256.881 411.972C256.461 411.612 255.915 411.432 255.243 411.432C254.655 411.432 254.139 411.582 253.695 411.882C253.251 412.17 252.921 412.548 252.705 413.016L251.481 412.35C251.661 411.942 251.943 411.57 252.327 411.234C252.723 410.898 253.173 410.634 253.677 410.442C254.181 410.238 254.703 410.136 255.243 410.136C255.951 410.136 256.575 410.274 257.115 410.55C257.667 410.826 258.093 411.21 258.393 411.702C258.705 412.182 258.861 412.74 258.861 413.376V420H257.511V418.074L257.709 418.272C257.541 418.632 257.277 418.962 256.917 419.262C256.569 419.55 256.155 419.784 255.675 419.964C255.207 420.132 254.691 420.216 254.127 420.216ZM261.638 420V406.374H262.988V420H261.638ZM265.751 420V406.374H267.101V412.224L266.795 412.152C267.035 411.528 267.425 411.036 267.965 410.676C268.517 410.316 269.153 410.136 269.873 410.136C270.557 410.136 271.169 410.292 271.709 410.604C272.261 410.916 272.693 411.348 273.005 411.9C273.329 412.44 273.491 413.052 273.491 413.736V420H272.141V414.258C272.141 413.67 272.033 413.172 271.817 412.764C271.601 412.356 271.301 412.044 270.917 411.828C270.545 411.6 270.119 411.486 269.639 411.486C269.159 411.486 268.727 411.6 268.343 411.828C267.959 412.044 267.653 412.362 267.425 412.782C267.209 413.19 267.101 413.682 267.101 414.258V420H265.751ZM280.588 420.216C279.676 420.216 278.848 420 278.104 419.568C277.36 419.124 276.766 418.524 276.322 417.768C275.89 417 275.674 416.13 275.674 415.158C275.674 414.198 275.89 413.34 276.322 412.584C276.754 411.828 277.336 411.234 278.068 410.802C278.812 410.358 279.652 410.136 280.588 410.136C281.524 410.136 282.358 410.352 283.09 410.784C283.834 411.216 284.416 411.81 284.836 412.566C285.268 413.322 285.484 414.186 285.484 415.158C285.484 416.142 285.262 417.018 284.818 417.786C284.374 418.542 283.78 419.136 283.036 419.568C282.304 420 281.488 420.216 280.588 420.216ZM280.588 418.866C281.236 418.866 281.818 418.704 282.334 418.38C282.862 418.056 283.276 417.612 283.576 417.048C283.888 416.484 284.044 415.854 284.044 415.158C284.044 414.462 283.888 413.838 283.576 413.286C283.276 412.734 282.862 412.296 282.334 411.972C281.818 411.648 281.236 411.486 280.588 411.486C279.94 411.486 279.352 411.648 278.824 411.972C278.308 412.296 277.894 412.734 277.582 413.286C277.27 413.838 277.114 414.462 277.114 415.158C277.114 415.854 277.27 416.484 277.582 417.048C277.894 417.612 278.308 418.056 278.824 418.38C279.352 418.704 279.94 418.866 280.588 418.866ZM291.213 420.216C290.289 420.216 289.479 419.982 288.783 419.514C288.087 419.046 287.583 418.41 287.271 417.606L288.405 417.066C288.681 417.654 289.065 418.122 289.557 418.47C290.061 418.818 290.613 418.992 291.213 418.992C291.789 418.992 292.275 418.854 292.671 418.578C293.067 418.29 293.265 417.918 293.265 417.462C293.265 417.126 293.169 416.862 292.977 416.67C292.785 416.466 292.563 416.31 292.311 416.202C292.059 416.094 291.837 416.016 291.645 415.968L290.259 415.572C289.371 415.32 288.729 414.966 288.333 414.51C287.937 414.054 287.739 413.526 287.739 412.926C287.739 412.362 287.883 411.87 288.171 411.45C288.459 411.03 288.849 410.706 289.341 410.478C289.833 410.25 290.379 410.136 290.979 410.136C291.795 410.136 292.533 410.352 293.193 410.784C293.865 411.204 294.339 411.792 294.615 412.548L293.463 413.088C293.223 412.548 292.875 412.128 292.419 411.828C291.975 411.516 291.477 411.36 290.925 411.36C290.385 411.36 289.953 411.498 289.629 411.774C289.305 412.05 289.143 412.398 289.143 412.818C289.143 413.142 289.227 413.4 289.395 413.592C289.563 413.784 289.755 413.928 289.971 414.024C290.199 414.12 290.397 414.192 290.565 414.24L292.167 414.708C292.947 414.936 293.553 415.29 293.985 415.77C294.429 416.25 294.651 416.814 294.651 417.462C294.651 417.99 294.501 418.464 294.201 418.884C293.913 419.304 293.511 419.634 292.995 419.874C292.479 420.102 291.885 420.216 291.213 420.216ZM297.491 420V418.02H298.931V420H297.491ZM297.491 412.332V410.352H298.931V412.332H297.491ZM105.584 478V464.59H106.844L111.884 471.898H111.182L116.204 464.59H117.464V478H116.024V466.534L116.492 466.714L111.56 473.86H111.488L106.574 466.714L107.024 466.534V478H105.584ZM123.223 478.216C122.611 478.216 122.065 478.102 121.585 477.874C121.105 477.634 120.727 477.31 120.451 476.902C120.175 476.494 120.037 476.026 120.037 475.498C120.037 474.994 120.145 474.538 120.361 474.13C120.577 473.71 120.913 473.356 121.369 473.068C121.825 472.78 122.407 472.576 123.115 472.456L126.895 471.826V473.05L123.439 473.626C122.743 473.746 122.239 473.968 121.927 474.292C121.627 474.616 121.477 475 121.477 475.444C121.477 475.876 121.645 476.242 121.981 476.542C122.329 476.842 122.773 476.992 123.313 476.992C123.973 476.992 124.549 476.854 125.041 476.578C125.533 476.29 125.917 475.906 126.193 475.426C126.469 474.946 126.607 474.412 126.607 473.824V471.376C126.607 470.8 126.397 470.332 125.977 469.972C125.557 469.612 125.011 469.432 124.339 469.432C123.751 469.432 123.235 469.582 122.791 469.882C122.347 470.17 122.017 470.548 121.801 471.016L120.577 470.35C120.757 469.942 121.039 469.57 121.423 469.234C121.819 468.898 122.269 468.634 122.773 468.442C123.277 468.238 123.799 468.136 124.339 468.136C125.047 468.136 125.671 468.274 126.211 468.55C126.763 468.826 127.189 469.21 127.489 469.702C127.801 470.182 127.957 470.74 127.957 471.376V478H126.607V476.074L126.805 476.272C126.637 476.632 126.373 476.962 126.013 477.262C125.665 477.55 125.251 477.784 124.771 477.964C124.303 478.132 123.787 478.216 123.223 478.216ZM135.144 478.216C134.196 478.216 133.362 477.994 132.642 477.55C131.922 477.106 131.358 476.506 130.95 475.75C130.542 474.982 130.338 474.118 130.338 473.158C130.338 472.198 130.542 471.34 130.95 470.584C131.358 469.828 131.922 469.234 132.642 468.802C133.362 468.358 134.196 468.136 135.144 468.136C135.744 468.136 136.308 468.244 136.836 468.46C137.364 468.676 137.832 468.97 138.24 469.342C138.648 469.702 138.954 470.122 139.158 470.602L137.934 471.232C137.694 470.716 137.328 470.296 136.836 469.972C136.344 469.648 135.78 469.486 135.144 469.486C134.508 469.486 133.932 469.648 133.416 469.972C132.912 470.284 132.51 470.722 132.21 471.286C131.922 471.838 131.778 472.468 131.778 473.176C131.778 473.872 131.922 474.502 132.21 475.066C132.51 475.618 132.912 476.056 133.416 476.38C133.932 476.704 134.508 476.866 135.144 476.866C135.78 476.866 136.338 476.704 136.818 476.38C137.31 476.056 137.682 475.624 137.934 475.084L139.158 475.75C138.954 476.218 138.648 476.638 138.24 477.01C137.832 477.382 137.364 477.676 136.836 477.892C136.308 478.108 135.744 478.216 135.144 478.216ZM141.995 478V476.02H143.435V478H141.995ZM141.995 470.332V468.352H143.435V470.332H141.995ZM152.022 478.54V470.746H149.268L154.308 465.706L159.348 470.746H156.594V478.54H152.022ZM152.562 478H156.054V470.206H158.034L154.308 466.48L150.582 470.206H152.562V478ZM169.428 478.216C168.576 478.216 167.802 478.054 167.106 477.73C166.41 477.406 165.822 476.974 165.342 476.434C164.862 475.882 164.52 475.276 164.316 474.616L165.612 474.13C165.924 475.042 166.41 475.738 167.07 476.218C167.73 476.686 168.516 476.92 169.428 476.92C170.004 476.92 170.508 476.83 170.94 476.65C171.384 476.458 171.726 476.194 171.966 475.858C172.206 475.522 172.326 475.132 172.326 474.688C172.326 474.028 172.146 473.518 171.786 473.158C171.426 472.798 170.91 472.522 170.238 472.33L167.826 471.61C166.878 471.334 166.146 470.872 165.63 470.224C165.126 469.576 164.874 468.838 164.874 468.01C164.874 467.302 165.048 466.678 165.396 466.138C165.744 465.586 166.218 465.154 166.818 464.842C167.43 464.53 168.12 464.374 168.888 464.374C169.692 464.374 170.412 464.524 171.048 464.824C171.696 465.112 172.242 465.496 172.686 465.976C173.13 466.456 173.448 466.99 173.64 467.578L172.38 468.082C172.092 467.29 171.642 466.69 171.03 466.282C170.43 465.874 169.722 465.67 168.906 465.67C168.39 465.67 167.934 465.76 167.538 465.94C167.154 466.12 166.854 466.378 166.638 466.714C166.422 467.05 166.314 467.446 166.314 467.902C166.314 468.454 166.488 468.952 166.836 469.396C167.184 469.828 167.718 470.152 168.438 470.368L170.562 470.998C171.618 471.31 172.416 471.76 172.956 472.348C173.496 472.936 173.766 473.674 173.766 474.562C173.766 475.282 173.58 475.918 173.208 476.47C172.848 477.01 172.338 477.436 171.678 477.748C171.03 478.06 170.28 478.216 169.428 478.216ZM176.349 478V464.374H177.699V470.224L177.393 470.152C177.633 469.528 178.023 469.036 178.563 468.676C179.115 468.316 179.751 468.136 180.471 468.136C181.155 468.136 181.767 468.292 182.307 468.604C182.859 468.916 183.291 469.348 183.603 469.9C183.927 470.44 184.089 471.052 184.089 471.736V478H182.739V472.258C182.739 471.67 182.631 471.172 182.415 470.764C182.199 470.356 181.899 470.044 181.515 469.828C181.143 469.6 180.717 469.486 180.237 469.486C179.757 469.486 179.325 469.6 178.941 469.828C178.557 470.044 178.251 470.362 178.023 470.782C177.807 471.19 177.699 471.682 177.699 472.258V478H176.349ZM186.667 478V468.352H188.017V478H186.667ZM186.667 466.57V464.59H188.017V466.57H186.667ZM191.771 478V469.702H189.845V468.352H191.771V467.488C191.771 466.816 191.921 466.252 192.221 465.796C192.521 465.328 192.917 464.974 193.409 464.734C193.901 464.494 194.429 464.374 194.993 464.374C195.113 464.374 195.251 464.386 195.407 464.41C195.563 464.422 195.689 464.44 195.785 464.464V465.688C195.701 465.664 195.587 465.652 195.443 465.652C195.299 465.64 195.197 465.634 195.137 465.634C194.561 465.634 194.081 465.772 193.697 466.048C193.313 466.324 193.121 466.804 193.121 467.488V468.352H195.479V469.702H193.121V478H191.771ZM201.713 478.108C200.849 478.108 200.183 477.856 199.715 477.352C199.247 476.848 199.013 476.128 199.013 475.192V469.702H197.231V468.352H197.681C198.089 468.352 198.413 468.22 198.653 467.956C198.893 467.68 199.013 467.338 199.013 466.93V466.12H200.363V468.352H202.487V469.702H200.363V475.192C200.363 475.516 200.411 475.804 200.507 476.056C200.603 476.296 200.765 476.488 200.993 476.632C201.233 476.776 201.551 476.848 201.947 476.848C202.043 476.848 202.157 476.842 202.289 476.83C202.421 476.818 202.535 476.806 202.631 476.794V478C202.487 478.036 202.325 478.06 202.145 478.072C201.965 478.096 201.821 478.108 201.713 478.108ZM211.462 478V474.166H207.628V472.816H211.462V469H212.812V472.816H216.628V474.166H212.812V478H211.462ZM224.32 478C222.646 478 221.566 476.938 221.566 475.282C221.566 473.536 222.61 472.51 224.662 472.51H225.724V470.53H224.662C222.61 470.53 221.566 469.504 221.566 467.758C221.566 466.102 222.646 465.04 224.32 465.04C226.336 465.04 226.984 466.3 226.984 467.812V469.306H228.964V467.812C228.964 466.3 229.612 465.04 231.628 465.04C233.302 465.04 234.382 466.102 234.382 467.758C234.382 469.504 233.338 470.53 231.286 470.53H230.224V472.51H231.286C233.338 472.51 234.382 473.536 234.382 475.282C234.382 476.938 233.302 478 231.628 478C229.612 478 228.964 476.74 228.964 475.228V473.734H226.984V475.228C226.984 476.74 226.336 478 224.32 478ZM230.224 467.776V469.306H231.286C232.564 469.306 233.104 468.784 233.104 467.758C233.104 466.696 232.474 466.282 231.628 466.282C230.692 466.282 230.224 466.858 230.224 467.776ZM224.662 469.306H225.724V467.776C225.724 466.858 225.256 466.282 224.32 466.282C223.474 466.282 222.844 466.696 222.844 467.758C222.844 468.784 223.384 469.306 224.662 469.306ZM226.984 472.51H228.964V470.53H226.984V472.51ZM224.32 476.758C225.256 476.758 225.724 476.182 225.724 475.264V473.734H224.662C223.384 473.734 222.844 474.256 222.844 475.282C222.844 476.344 223.474 476.758 224.32 476.758ZM230.224 475.264C230.224 476.182 230.692 476.758 231.628 476.758C232.474 476.758 233.104 476.344 233.104 475.282C233.104 474.256 232.564 473.734 231.286 473.734H230.224V475.264ZM246.071 478.216C245.123 478.216 244.253 478.048 243.461 477.712C242.669 477.364 241.979 476.884 241.391 476.272C240.815 475.648 240.365 474.916 240.041 474.076C239.717 473.236 239.555 472.312 239.555 471.304C239.555 470.296 239.717 469.372 240.041 468.532C240.365 467.692 240.815 466.96 241.391 466.336C241.979 465.712 242.669 465.232 243.461 464.896C244.253 464.548 245.123 464.374 246.071 464.374C246.983 464.374 247.799 464.536 248.519 464.86C249.251 465.184 249.863 465.604 250.355 466.12C250.859 466.624 251.219 467.158 251.435 467.722L250.085 468.316C249.749 467.536 249.233 466.912 248.537 466.444C247.853 465.964 247.031 465.724 246.071 465.724C245.087 465.724 244.211 465.958 243.443 466.426C242.675 466.894 242.075 467.548 241.643 468.388C241.211 469.216 240.995 470.188 240.995 471.304C240.995 472.408 241.211 473.38 241.643 474.22C242.075 475.06 242.675 475.714 243.443 476.182C244.211 476.638 245.087 476.866 246.071 476.866C247.031 476.866 247.853 476.632 248.537 476.164C249.233 475.696 249.749 475.072 250.085 474.292L251.435 474.886C251.219 475.438 250.859 475.972 250.355 476.488C249.863 476.992 249.251 477.406 248.519 477.73C247.799 478.054 246.983 478.216 246.071 478.216ZM253.816 478V468.352H255.166V470.188L254.95 469.918C255.214 469.354 255.604 468.916 256.12 468.604C256.648 468.292 257.224 468.136 257.848 468.136C258.592 468.136 259.264 468.346 259.864 468.766C260.464 469.186 260.89 469.732 261.142 470.404L260.764 470.422C261.004 469.678 261.418 469.114 262.006 468.73C262.606 468.334 263.266 468.136 263.986 468.136C264.634 468.136 265.228 468.292 265.768 468.604C266.32 468.916 266.758 469.348 267.082 469.9C267.418 470.44 267.586 471.052 267.586 471.736V478H266.236V472.258C266.236 471.67 266.128 471.172 265.912 470.764C265.708 470.356 265.426 470.044 265.066 469.828C264.706 469.6 264.292 469.486 263.824 469.486C263.368 469.486 262.954 469.6 262.582 469.828C262.21 470.044 261.916 470.362 261.7 470.782C261.484 471.19 261.376 471.682 261.376 472.258V478H260.026V472.258C260.026 471.67 259.918 471.172 259.702 470.764C259.498 470.356 259.216 470.044 258.856 469.828C258.496 469.6 258.082 469.486 257.614 469.486C257.146 469.486 256.726 469.6 256.354 469.828C255.994 470.044 255.706 470.362 255.49 470.782C255.274 471.19 255.166 471.682 255.166 472.258V478H253.816ZM274.519 478.216C273.619 478.216 272.809 478 272.089 477.568C271.369 477.124 270.799 476.524 270.379 475.768C269.971 475 269.767 474.136 269.767 473.176C269.767 472.204 269.971 471.34 270.379 470.584C270.799 469.828 271.363 469.234 272.071 468.802C272.791 468.358 273.607 468.136 274.519 468.136C275.347 468.136 276.085 468.316 276.733 468.676C277.381 469.036 277.891 469.522 278.263 470.134L278.047 470.512V464.374H279.397V478H278.047V475.84L278.263 476.038C277.927 476.734 277.423 477.274 276.751 477.658C276.091 478.03 275.347 478.216 274.519 478.216ZM274.591 476.866C275.239 476.866 275.821 476.704 276.337 476.38C276.865 476.056 277.279 475.618 277.579 475.066C277.891 474.502 278.047 473.872 278.047 473.176C278.047 472.48 277.891 471.856 277.579 471.304C277.279 470.74 276.865 470.296 276.337 469.972C275.821 469.648 275.239 469.486 274.591 469.486C273.955 469.486 273.379 469.648 272.863 469.972C272.347 470.296 271.939 470.734 271.639 471.286C271.351 471.838 271.207 472.468 271.207 473.176C271.207 473.872 271.351 474.502 271.639 475.066C271.939 475.618 272.341 476.056 272.845 476.38C273.361 476.704 273.943 476.866 274.591 476.866ZM288.63 478V474.166H284.796V472.816H288.63V469H289.98V472.816H293.796V474.166H289.98V478H288.63ZM299.4 478V464.59H308.04V465.94H300.84V470.602H307.68V471.952H300.84V476.65H308.04V478H299.4ZM108.05 536L104.198 522.59H105.656L108.986 534.596H108.68L112.1 522.59H113.63L117.032 534.596H116.708L120.056 522.59H121.514L117.662 536H116.132L112.694 523.94H113.018L109.58 536H108.05ZM123.105 536V526.352H124.455V536H123.105ZM123.105 524.57V522.59H124.455V524.57H123.105ZM127.218 536V526.352H128.568V528.224L128.262 528.152C128.502 527.528 128.892 527.036 129.432 526.676C129.984 526.316 130.62 526.136 131.34 526.136C132.024 526.136 132.636 526.292 133.176 526.604C133.728 526.916 134.16 527.348 134.472 527.9C134.796 528.44 134.958 529.052 134.958 529.736V536H133.608V530.258C133.608 529.67 133.5 529.172 133.284 528.764C133.08 528.356 132.786 528.044 132.402 527.828C132.03 527.6 131.598 527.486 131.106 527.486C130.614 527.486 130.176 527.6 129.792 527.828C129.408 528.044 129.108 528.362 128.892 528.782C128.676 529.19 128.568 529.682 128.568 530.258V536H127.218ZM141.892 536.216C140.992 536.216 140.182 536 139.462 535.568C138.742 535.124 138.172 534.524 137.752 533.768C137.344 533 137.14 532.136 137.14 531.176C137.14 530.204 137.344 529.34 137.752 528.584C138.172 527.828 138.736 527.234 139.444 526.802C140.164 526.358 140.98 526.136 141.892 526.136C142.72 526.136 143.458 526.316 144.106 526.676C144.754 527.036 145.264 527.522 145.636 528.134L145.42 528.512V522.374H146.77V536H145.42V533.84L145.636 534.038C145.3 534.734 144.796 535.274 144.124 535.658C143.464 536.03 142.72 536.216 141.892 536.216ZM141.964 534.866C142.612 534.866 143.194 534.704 143.71 534.38C144.238 534.056 144.652 533.618 144.952 533.066C145.264 532.502 145.42 531.872 145.42 531.176C145.42 530.48 145.264 529.856 144.952 529.304C144.652 528.74 144.238 528.296 143.71 527.972C143.194 527.648 142.612 527.486 141.964 527.486C141.328 527.486 140.752 527.648 140.236 527.972C139.72 528.296 139.312 528.734 139.012 529.286C138.724 529.838 138.58 530.468 138.58 531.176C138.58 531.872 138.724 532.502 139.012 533.066C139.312 533.618 139.714 534.056 140.218 534.38C140.734 534.704 141.316 534.866 141.964 534.866ZM154.06 536.216C153.148 536.216 152.32 536 151.576 535.568C150.832 535.124 150.238 534.524 149.794 533.768C149.362 533 149.146 532.13 149.146 531.158C149.146 530.198 149.362 529.34 149.794 528.584C150.226 527.828 150.808 527.234 151.54 526.802C152.284 526.358 153.124 526.136 154.06 526.136C154.996 526.136 155.83 526.352 156.562 526.784C157.306 527.216 157.888 527.81 158.308 528.566C158.74 529.322 158.956 530.186 158.956 531.158C158.956 532.142 158.734 533.018 158.29 533.786C157.846 534.542 157.252 535.136 156.508 535.568C155.776 536 154.96 536.216 154.06 536.216ZM154.06 534.866C154.708 534.866 155.29 534.704 155.806 534.38C156.334 534.056 156.748 533.612 157.048 533.048C157.36 532.484 157.516 531.854 157.516 531.158C157.516 530.462 157.36 529.838 157.048 529.286C156.748 528.734 156.334 528.296 155.806 527.972C155.29 527.648 154.708 527.486 154.06 527.486C153.412 527.486 152.824 527.648 152.296 527.972C151.78 528.296 151.366 528.734 151.054 529.286C150.742 529.838 150.586 530.462 150.586 531.158C150.586 531.854 150.742 532.484 151.054 533.048C151.366 533.612 151.78 534.056 152.296 534.38C152.824 534.704 153.412 534.866 154.06 534.866ZM163.285 536L159.973 526.352H161.503L164.239 534.794H163.699L166.273 526.352H167.623L170.197 534.794H169.657L172.411 526.352H173.923L170.611 536H169.261L166.759 527.738H167.137L164.635 536H163.285ZM178.853 536.216C177.929 536.216 177.119 535.982 176.423 535.514C175.727 535.046 175.223 534.41 174.911 533.606L176.045 533.066C176.321 533.654 176.705 534.122 177.197 534.47C177.701 534.818 178.253 534.992 178.853 534.992C179.429 534.992 179.915 534.854 180.311 534.578C180.707 534.29 180.905 533.918 180.905 533.462C180.905 533.126 180.809 532.862 180.617 532.67C180.425 532.466 180.203 532.31 179.951 532.202C179.699 532.094 179.477 532.016 179.285 531.968L177.899 531.572C177.011 531.32 176.369 530.966 175.973 530.51C175.577 530.054 175.379 529.526 175.379 528.926C175.379 528.362 175.523 527.87 175.811 527.45C176.099 527.03 176.489 526.706 176.981 526.478C177.473 526.25 178.019 526.136 178.619 526.136C179.435 526.136 180.173 526.352 180.833 526.784C181.505 527.204 181.979 527.792 182.255 528.548L181.103 529.088C180.863 528.548 180.515 528.128 180.059 527.828C179.615 527.516 179.117 527.36 178.565 527.36C178.025 527.36 177.593 527.498 177.269 527.774C176.945 528.05 176.783 528.398 176.783 528.818C176.783 529.142 176.867 529.4 177.035 529.592C177.203 529.784 177.395 529.928 177.611 530.024C177.839 530.12 178.037 530.192 178.205 530.24L179.807 530.708C180.587 530.936 181.193 531.29 181.625 531.77C182.069 532.25 182.291 532.814 182.291 533.462C182.291 533.99 182.141 534.464 181.841 534.884C181.553 535.304 181.151 535.634 180.635 535.874C180.119 536.102 179.525 536.216 178.853 536.216ZM185.131 536V534.02H186.571V536H185.131ZM185.131 528.332V526.352H186.571V528.332H185.131ZM199.19 536.216C198.242 536.216 197.372 536.048 196.58 535.712C195.788 535.364 195.098 534.884 194.51 534.272C193.934 533.648 193.484 532.916 193.16 532.076C192.836 531.236 192.674 530.312 192.674 529.304C192.674 528.296 192.836 527.372 193.16 526.532C193.484 525.692 193.934 524.96 194.51 524.336C195.098 523.712 195.788 523.232 196.58 522.896C197.372 522.548 198.242 522.374 199.19 522.374C200.102 522.374 200.918 522.536 201.638 522.86C202.37 523.184 202.982 523.604 203.474 524.12C203.978 524.624 204.338 525.158 204.554 525.722L203.204 526.316C202.868 525.536 202.352 524.912 201.656 524.444C200.972 523.964 200.15 523.724 199.19 523.724C198.206 523.724 197.33 523.958 196.562 524.426C195.794 524.894 195.194 525.548 194.762 526.388C194.33 527.216 194.114 528.188 194.114 529.304C194.114 530.408 194.33 531.38 194.762 532.22C195.194 533.06 195.794 533.714 196.562 534.182C197.33 534.638 198.206 534.866 199.19 534.866C200.15 534.866 200.972 534.632 201.656 534.164C202.352 533.696 202.868 533.072 203.204 532.292L204.554 532.886C204.338 533.438 203.978 533.972 203.474 534.488C202.982 534.992 202.37 535.406 201.638 535.73C200.918 536.054 200.102 536.216 199.19 536.216ZM210.625 536.108C209.761 536.108 209.095 535.856 208.627 535.352C208.159 534.848 207.925 534.128 207.925 533.192V527.702H206.143V526.352H206.593C207.001 526.352 207.325 526.22 207.565 525.956C207.805 525.68 207.925 525.338 207.925 524.93V524.12H209.275V526.352H211.399V527.702H209.275V533.192C209.275 533.516 209.323 533.804 209.419 534.056C209.515 534.296 209.677 534.488 209.905 534.632C210.145 534.776 210.463 534.848 210.859 534.848C210.955 534.848 211.069 534.842 211.201 534.83C211.333 534.818 211.447 534.806 211.543 534.794V536C211.399 536.036 211.237 536.06 211.057 536.072C210.877 536.096 210.733 536.108 210.625 536.108ZM213.913 536V526.352H215.263V527.936L215.083 527.702C215.311 527.246 215.653 526.886 216.109 526.622C216.577 526.358 217.141 526.226 217.801 526.226H218.413V527.576H217.567C216.871 527.576 216.313 527.792 215.893 528.224C215.473 528.656 215.263 529.268 215.263 530.06V536H213.913ZM219.995 536V522.374H221.345V536H219.995ZM230.569 536V532.166H226.735V530.816H230.569V527H231.919V530.816H235.735V532.166H231.919V536H230.569ZM245.858 536.216C245.006 536.216 244.232 536.054 243.536 535.73C242.84 535.406 242.252 534.974 241.772 534.434C241.292 533.882 240.95 533.276 240.746 532.616L242.042 532.13C242.354 533.042 242.84 533.738 243.5 534.218C244.16 534.686 244.946 534.92 245.858 534.92C246.434 534.92 246.938 534.83 247.37 534.65C247.814 534.458 248.156 534.194 248.396 533.858C248.636 533.522 248.756 533.132 248.756 532.688C248.756 532.028 248.576 531.518 248.216 531.158C247.856 530.798 247.34 530.522 246.668 530.33L244.256 529.61C243.308 529.334 242.576 528.872 242.06 528.224C241.556 527.576 241.304 526.838 241.304 526.01C241.304 525.302 241.478 524.678 241.826 524.138C242.174 523.586 242.648 523.154 243.248 522.842C243.86 522.53 244.55 522.374 245.318 522.374C246.122 522.374 246.842 522.524 247.478 522.824C248.126 523.112 248.672 523.496 249.116 523.976C249.56 524.456 249.878 524.99 250.07 525.578L248.81 526.082C248.522 525.29 248.072 524.69 247.46 524.282C246.86 523.874 246.152 523.67 245.336 523.67C244.82 523.67 244.364 523.76 243.968 523.94C243.584 524.12 243.284 524.378 243.068 524.714C242.852 525.05 242.744 525.446 242.744 525.902C242.744 526.454 242.918 526.952 243.266 527.396C243.614 527.828 244.148 528.152 244.868 528.368L246.992 528.998C248.048 529.31 248.846 529.76 249.386 530.348C249.926 530.936 250.196 531.674 250.196 532.562C250.196 533.282 250.01 533.918 249.638 534.47C249.278 535.01 248.768 535.436 248.108 535.748C247.46 536.06 246.71 536.216 245.858 536.216ZM252.779 536V522.374H254.129V528.224L253.823 528.152C254.063 527.528 254.453 527.036 254.993 526.676C255.545 526.316 256.181 526.136 256.901 526.136C257.585 526.136 258.197 526.292 258.737 526.604C259.289 526.916 259.721 527.348 260.033 527.9C260.357 528.44 260.519 529.052 260.519 529.736V536H259.169V530.258C259.169 529.67 259.061 529.172 258.845 528.764C258.629 528.356 258.329 528.044 257.945 527.828C257.573 527.6 257.147 527.486 256.667 527.486C256.187 527.486 255.755 527.6 255.371 527.828C254.987 528.044 254.681 528.362 254.453 528.782C254.237 529.19 254.129 529.682 254.129 530.258V536H252.779ZM263.097 536V526.352H264.447V536H263.097ZM263.097 524.57V522.59H264.447V524.57H263.097ZM268.2 536V527.702H266.274V526.352H268.2V525.488C268.2 524.816 268.35 524.252 268.65 523.796C268.95 523.328 269.346 522.974 269.838 522.734C270.33 522.494 270.858 522.374 271.422 522.374C271.542 522.374 271.68 522.386 271.836 522.41C271.992 522.422 272.118 522.44 272.214 522.464V523.688C272.13 523.664 272.016 523.652 271.872 523.652C271.728 523.64 271.626 523.634 271.566 523.634C270.99 523.634 270.51 523.772 270.126 524.048C269.742 524.324 269.55 524.804 269.55 525.488V526.352H271.908V527.702H269.55V536H268.2ZM278.142 536.108C277.278 536.108 276.612 535.856 276.144 535.352C275.676 534.848 275.442 534.128 275.442 533.192V527.702H273.66V526.352H274.11C274.518 526.352 274.842 526.22 275.082 525.956C275.322 525.68 275.442 525.338 275.442 524.93V524.12H276.792V526.352H278.916V527.702H276.792V533.192C276.792 533.516 276.84 533.804 276.936 534.056C277.032 534.296 277.194 534.488 277.422 534.632C277.662 534.776 277.98 534.848 278.376 534.848C278.472 534.848 278.586 534.842 278.718 534.83C278.85 534.818 278.964 534.806 279.06 534.794V536C278.916 536.036 278.754 536.06 278.574 536.072C278.394 536.096 278.25 536.108 278.142 536.108ZM287.892 536V532.166H284.058V530.816H287.892V527H289.242V530.816H293.058V532.166H289.242V536H287.892ZM298.662 536V522.59H307.302V523.94H300.102V528.602H306.942V529.952H300.102V534.65H307.302V536H298.662Z" fill="#C4C4CC"/>
<path d="M104 188.6H234.93V189.88H104V188.6Z" fill="#C4C4CC"/>
<path d="M104 263.6H253.523V264.88H104V263.6Z" fill="#C4C4CC"/>
<a href="https://www.figma.com/design/aI2ohhSwhBJcXcajFJjZPp/Formul%C3%A1rio-de-convite-(Community)?node-id=0-1">
<rect fill="black" fill-opacity="0" x="48" y="5.34" width="130.93" height="40.32"/>
</a>
<a href="https://www.figma.com/design/aI2ohhSwhBJcXcajFJjZPp/Formul%C3%A1rio-de-convite-(Community)?node-id=3-376">
<rect fill="black" fill-opacity="0" x="48" y="80.34" width="149.523" height="40.32"/>
</a>
</svg>
